<svg version="1.2" baseProfile="tiny-ps" xmlns="http://www.w3.org/2000/svg" viewBox="0 0 1628 1073" width="1628" height="1073">
	<title>&lt;Layer&gt;</title>
	<style>
		tspan { white-space:pre }
		.shp0 { fill: #eaeaea } 
		.shp1 { fill: #ffffff } 
		.shp2 { fill: #d5d6da } 
		.shp3 { fill: #364154 } 
		.shp4 { fill: #131f2d } 
		.shp5 { fill: #016eb9 } 
		.shp6 { fill: #ffb27d } 
		.shp7 { fill: #657285 } 
		.shp8 { fill: #e9845c } 
		.shp9 { fill: #daebe8 } 
		.shp10 { fill: #366f90 } 
		.shp11 { fill: #020202 } 
		.shp12 { fill: #e9633e } 
		.shp13 { fill: #080435 } 
		.shp14 { fill: #764678 } 
		.shp15 { fill: #00a3fe } 
		.shp16 { fill: #ec865c } 
		.shp17 { fill: #562759 } 
		.shp18 { fill: #68a1bf } 
	</style>
	<g id="&lt;Layer&gt;">
		<g id="&lt;Group&gt;">
			<g id="&lt;Group&gt;">
				<g id="&lt;Group&gt;">
					<g id="&lt;Group&gt;">
						<path id="&lt;Path&gt;" class="shp0" d="M1468.35 695.08C1413.43 715.57 1435.29 800.03 1368.37 793.48C1311.77 787.9 1306.44 783.53 1289.81 802.01C1284.11 808.35 1279.44 815.54 1275.74 823.21C1271.3 832.41 1262.16 846.34 1245.99 851.66C1147.18 884.15 986.82 754.31 1080.61 656.35C1087.39 649.27 1098.17 645.37 1110.2 641.65C1175.46 621.55 1200.71 649.19 1241.9 562.87C1283.1 476.54 1370.86 579.03 1415.06 568.57C1459.26 558.1 1496.78 538.95 1538.55 581.34C1580.33 623.77 1523.27 674.63 1468.35 695.08Z" />
					</g>
				</g>
				<g id="&lt;Group&gt;">
					<g id="&lt;Group&gt;">
						<g id="&lt;Group&gt;">
							<path id="&lt;Path&gt;" class="shp1" d="M1128.73 760.75L1126.14 757.89C1127.4 756.75 1255.51 643.13 1548.54 593.65L1549.18 597.46C1257.25 646.75 1129.98 759.61 1128.73 760.75Z" />
						</g>
					</g>
					<g id="&lt;Group&gt;">
						<g id="&lt;Group&gt;">
							<path id="&lt;Path&gt;" class="shp1" d="M1295.22 620.7C1251.38 591.41 1240.54 564.69 1240.1 563.57L1243.68 562.16C1243.79 562.43 1254.64 588.96 1297.36 617.49L1295.22 620.7Z" />
						</g>
					</g>
					<g id="&lt;Group&gt;">
						<g id="&lt;Group&gt;">
							<path id="&lt;Path&gt;" class="shp1" d="M1307.9 660.89C1294.22 643.26 1291.24 615.44 1299.28 580.43C1305.3 554.21 1315.48 532.86 1315.58 532.65L1319.06 534.31C1318.66 535.15 1279.49 618 1310.94 658.53L1307.9 660.89Z" />
						</g>
					</g>
				</g>
			</g>
			<g id="&lt;Group&gt;">
				<g id="&lt;Group&gt;">
					<g id="&lt;Group&gt;">
						<g id="&lt;Group&gt;">
							<path id="&lt;Path&gt;" class="shp2" d="M240.26 259.46C228.92 268.08 222.82 266.98 219.45 262.46C216.08 257.93 216.73 251.7 228.07 243.08C241.85 232.61 254.1 227.57 264.82 227.98C262.42 238.35 254.24 248.84 240.26 259.46Z" />
						</g>
						<g id="&lt;Group&gt;">
							<g id="&lt;Group&gt;">
								<g id="&lt;Group&gt;">
									<path id="&lt;Path&gt;" class="shp2" d="M272.81 594.46L270.11 594.53C270.1 594.11 268.6 551.81 247.57 491.96C228.17 436.74 187.7 354.86 105.09 278.38L106.9 276.37C189.97 353.27 230.65 435.63 250.15 491.18C271.29 551.4 272.79 594.04 272.81 594.46Z" />
								</g>
							</g>
							<g id="&lt;Group&gt;">
								<g id="&lt;Group&gt;">
									<path id="&lt;Path&gt;" class="shp2" d="M190.98 375.21L188.55 374.01C231.31 285.22 188.07 188.13 187.63 187.16L190.08 186.03C190.52 187.01 234.3 285.25 190.98 375.21Z" />
								</g>
							</g>
							<g id="&lt;Group&gt;">
								<g id="&lt;Group&gt;">
									<path id="&lt;Path&gt;" class="shp2" d="M145.6 335.77C118.44 338.82 96.31 327.35 96.06 327.22L97.29 324.8C97.58 324.95 125.93 339.61 157.42 330.68L158.16 333.31C153.9 334.52 149.69 335.31 145.6 335.77Z" />
								</g>
							</g>
							<g id="&lt;Group&gt;">
								<g id="&lt;Group&gt;">
									<path id="&lt;Path&gt;" class="shp2" d="M101.55 263.46C117.2 274.81 119.24 281.9 116.01 286.48C112.79 291.07 105.52 291.41 89.87 280.07C70.86 266.29 58.72 253.31 53.42 241.12C66.23 242.04 82.27 249.49 101.55 263.46Z" />
								</g>
							</g>
							<g id="&lt;Group&gt;">
								<g id="&lt;Group&gt;">
									<path id="&lt;Path&gt;" class="shp2" d="M102.22 317.65C120.48 323.71 124.54 329.86 122.83 335.22C121.13 340.59 114.31 343.14 96.05 337.08C73.86 329.72 58.44 321.03 49.77 310.99C62.23 307.97 79.71 310.18 102.22 317.65Z" />
								</g>
							</g>
							<g id="&lt;Group&gt;">
								<g id="&lt;Group&gt;">
									<path id="&lt;Path&gt;" class="shp2" d="M167.95 289.52C172.79 303.1 169.97 308.67 164.73 310.55C159.49 312.44 153.8 309.93 148.96 296.35C143.08 279.86 141.88 266.49 145.37 256.24C154.46 261.69 161.98 272.78 167.95 289.52Z" />
								</g>
							</g>
							<g id="&lt;Group&gt;">
								<g id="&lt;Group&gt;">
									<path id="&lt;Path&gt;" class="shp2" d="M194.44 174.42C201.06 192.7 198.79 199.69 193.55 201.6C188.32 203.52 182.11 199.63 175.49 181.35C167.45 159.15 164.65 141.53 167.08 128.49C177.16 136.59 186.28 151.9 194.44 174.42Z" />
								</g>
							</g>
						</g>
					</g>
				</g>
				<g id="&lt;Group&gt;">
					<path id="&lt;Path&gt;" class="shp2" d="M567.92 606.43C421.08 366.68 316.17 268.2 253.19 311C158.72 375.19 453.7 518.86 514.53 625.6L567.92 606.43Z" />
				</g>
				<g id="&lt;Group&gt;">
					<g id="&lt;Group&gt;">
						<path id="&lt;Path&gt;" class="shp2" d="M465.28 610.92C272.33 407.87 143.26 335.84 78.09 394.83C-19.67 483.32 327.14 552.21 407.97 643.77L465.28 610.92Z" />
					</g>
					<g id="&lt;Group&gt;">
						<g id="&lt;Group&gt;">
							<path id="&lt;Path&gt;" class="shp1" d="M433.38 629.58C378.7 565.32 297.84 515.06 239.64 484.22C176.54 450.78 125.76 432.34 125.26 432.16L126.39 428.97C126.9 429.15 177.89 447.67 241.2 481.22C299.66 512.2 380.9 562.7 435.93 627.37L433.38 629.58Z" />
						</g>
					</g>
				</g>
				<g id="&lt;Group&gt;">
					<g id="&lt;Group&gt;">
						<g id="&lt;Group&gt;">
							<path id="&lt;Path&gt;" class="shp0" d="M582.01 784.59C547.79 858.81 484.19 877.23 434.01 875.14C370.76 875.76 342.23 848.74 331.91 835.19C326.55 828.16 320.43 821.74 313.52 816.29C292.54 799.72 287.71 805.39 228.98 822C179.15 836.06 168.92 791.56 144.3 761.05C143.85 760.49 143.4 759.94 142.94 759.39C133.49 748.12 121.86 739.02 105.21 735.92C87.55 732.64 69.26 726.75 52.97 718.76C51.62 718.11 50.28 717.43 48.95 716.73C16.56 699.81 -6.6 674.41 1.78 644.95C1.98 644.25 2.19 643.55 2.43 642.86C4.06 637.96 6.57 632.95 10.05 627.85C46.33 574.78 89.49 588.13 138.1 590.96C164.99 592.52 199.53 554.76 235.11 534.92C235.62 534.64 236.14 534.36 236.65 534.08C264.93 518.74 293.81 515.23 319.93 552.25C319.93 552.25 319.94 552.25 319.94 552.26C320.47 553.01 321 553.75 321.52 554.49C379.78 635.93 401.59 602.39 473.58 611.45C486.97 613.14 499.09 615.27 507.55 621.55C586.45 679.99 650.34 733.28 582.01 784.59Z" />
						</g>
					</g>
					<g id="&lt;Group&gt;">
						<g id="&lt;Group&gt;">
							<g id="&lt;Group&gt;">
								<path id="&lt;Path&gt;" class="shp1" d="M476.03 741.94L478.24 738.41C476.7 737.43 320.4 640.4 1.77 642.86L1.79 647.04C319.23 644.59 474.5 740.97 476.03 741.94Z" />
							</g>
						</g>
						<g id="&lt;Group&gt;">
							<g id="&lt;Group&gt;">
								<path id="&lt;Path&gt;" class="shp1" d="M274.31 623.97C315.2 584.48 321.71 553.94 321.97 552.66L317.92 551.83C317.86 552.14 311.3 582.47 271.45 620.95L274.31 623.97Z" />
							</g>
						</g>
						<g id="&lt;Group&gt;">
							<g id="&lt;Group&gt;">
								<path id="&lt;Path&gt;" class="shp1" d="M268.35 669.21C279.53 647.84 277.54 617.61 262.57 581.79C251.37 554.97 236.67 534.11 236.52 533.91L233.16 536.34C233.74 537.15 290.42 618.13 264.69 667.27L268.35 669.21Z" />
							</g>
						</g>
						<g id="&lt;Group&gt;">
							<g id="&lt;Group&gt;">
								<path id="&lt;Path&gt;" class="shp1" d="M184.34 664.58C189.21 660.2 191.83 657.37 191.95 657.24L188.91 654.42C188.37 655.02 133.09 714.57 48.95 714.64L48.95 718.82C116.75 718.75 166.17 680.91 184.34 664.58Z" />
							</g>
						</g>
						<g id="&lt;Group&gt;">
							<g id="&lt;Group&gt;">
								<path id="&lt;Path&gt;" class="shp1" d="M145.85 762.37C164.41 740.15 169.25 718.38 170.05 704.03C170.92 688.41 167.39 678.15 167.24 677.72L163.34 679.12C163.48 679.51 176.66 719.01 142.69 759.68L145.85 762.37Z" />
							</g>
						</g>
					</g>
				</g>
				<g id="&lt;Group&gt;">
					<path id="&lt;Path&gt;" class="shp2" d="M119.33 553.75C105.21 551.95 101.59 546.88 102.31 541.28C103.03 535.69 107.81 531.68 121.93 533.47C139.08 535.65 151.36 540.65 158.78 548.46C149.87 554.2 136.72 555.96 119.33 553.75Z" />
				</g>
			</g>
			<g id="&lt;Group&gt;">
				<g id="&lt;Group&gt;">
					<path id="&lt;Path&gt;" class="shp3" d="M1183.27 913.7L414.25 913.7C403.28 913.7 393.58 906.58 390.29 896.11L235.04 401.74C226.9 375.82 246.26 349.44 273.44 349.44L973.31 349.44C992.8 349.44 1010.04 362.09 1015.88 380.69L1183.27 913.7Z" />
				</g>
				<g id="&lt;Group&gt;">
					<path id="&lt;Path&gt;" class="shp2" d="M1152.52 901.99L427.14 901.99L270.73 403.92C267.35 393.16 275.38 382.22 286.66 382.22L970.78 382.22C981.8 382.22 991.54 389.37 994.84 399.88L1152.52 901.99Z" />
				</g>
				<g id="&lt;Group&gt;">
					<path id="&lt;Path&gt;" class="shp3" d="M431.44 913.7L1558.69 913.7L1558.69 877.04L408.55 877.04L431.44 913.7Z" />
				</g>
				<g id="&lt;Group&gt;">
					<path id="&lt;Path&gt;" class="shp3" d="M955.89 913.7L1602.09 913.7C1608.3 913.7 1613.34 907.28 1613.34 899.35L1613.34 891.38C1613.34 883.46 1608.3 877.04 1602.09 877.04L957.49 877.04C952.35 877.04 947.87 881.48 946.6 887.83L945 895.8C943.18 904.87 948.55 913.7 955.89 913.7Z" />
				</g>
			</g>
			<g id="&lt;Group&gt;">
				<g id="&lt;Group&gt;">
					<path id="&lt;Path&gt;" class="shp4" d="M513.69 473.9C512.08 484.41 509.13 492.35 504.84 497.71C500.6 503.01 488.9 513.5 497.22 517C503.86 519.79 516.66 507.36 520.81 504.26C524.96 501.17 531.22 495.32 529.84 490.33C527.92 483.44 527.27 475.66 527.91 467L513.69 473.9Z" />
				</g>
				<g id="&lt;Group&gt;">
					<path id="&lt;Path&gt;" class="shp4" d="M560.23 461.67C562.38 472.09 562.37 480.55 560.21 487.07C558.08 493.51 550.76 507.42 559.78 507.8C566.98 508.11 574.65 492.01 577.47 487.66C580.28 483.32 584.12 475.65 581.08 471.46C576.89 465.67 573.58 458.6 571.17 450.26L560.23 461.67Z" />
				</g>
				<g id="&lt;Group&gt;">
					<g id="&lt;Group&gt;">
						<path id="&lt;Path&gt;" class="shp5" d="M555.73 472.71C469.49 415.19 473.75 364.8 485.7 345.09C499.58 322.2 521.55 304.11 555.23 296.03C564.21 293.88 572.76 292.64 579.9 291.92C590.24 290.88 599.15 299.14 598.88 309.53L598.1 338.88L598.17 338.88C583.78 338.58 540.13 342.97 528.69 366.23C526.32 371.06 584.36 439.24 582.2 451.48C579.75 465.32 564.16 478.34 555.73 472.71Z" />
					</g>
				</g>
				<g id="&lt;Group&gt;">
					<g id="&lt;Group&gt;">
						<path id="&lt;Path&gt;" class="shp5" d="M522.29 481.33C512.37 481.38 504.46 473.05 505.05 463.15C506.35 441.14 510.44 403.68 523.25 375.38C530.52 359.33 542.08 344.73 557.6 332C569.31 322.4 583.32 313.82 599.24 306.5C616.9 298.38 632.08 294.89 644.8 296.02L659.27 317.36C659.08 317.4 663.33 338.89 632.73 358.06C615.85 368.63 581.91 375.09 567.95 402.42C557.98 421.92 554.17 447.79 552.91 465.86C552.3 474.51 545.12 481.21 536.45 481.26L522.29 481.33Z" />
					</g>
				</g>
				<g id="&lt;Group&gt;">
					<path id="&lt;Path&gt;" class="shp6" d="M541.98 220.37C530.13 238.61 522.07 261.26 517.83 288.3C515.01 306.2 529.89 304.73 562.46 283.89L564.63 227.82L541.98 220.37Z" />
				</g>
				<g id="&lt;Group&gt;">
					<path id="&lt;Path&gt;" class="shp7" d="M630.9 204.9C621.87 189.46 606.94 184.11 586.12 188.85C554.89 195.96 542.17 227.86 539.93 304.46C552.43 326.58 587.12 335.49 644 331.17C653.45 330.46 667 329.21 662.38 313.88C653.79 285.39 645.47 228.56 630.9 204.9Z" />
				</g>
				<g id="&lt;Group&gt;">
					<path id="&lt;Path&gt;" class="shp7" d="M665.25 211.67L633.13 217.7C595.68 228.78 571.71 234.36 561.23 234.45C550.75 234.53 543.34 230.74 539 223.08C547.45 208.73 560.54 198.16 578.26 191.39C580.76 190.43 583.38 189.58 586.12 188.85C590.72 187.64 595.4 186.57 600.09 186.51C635.44 186.11 657.16 194.49 665.25 211.67Z" />
				</g>
				<g id="&lt;Group&gt;">
					<path id="&lt;Path&gt;" class="shp4" d="M665.25 211.67C665.95 214.2 659.21 218.42 650.21 221.1C641.21 223.78 633.35 223.9 632.66 221.37C631.96 218.84 638.69 214.61 647.7 211.93C656.7 209.25 664.56 209.13 665.25 211.67Z" />
				</g>
				<g id="&lt;Group&gt;">
					<g id="&lt;Group&gt;">
						<path id="&lt;Path&gt;" class="shp6" d="M659.7 283C645.98 304.5 618.81 318.22 590.25 317.32L593.29 294.41C615.43 290.37 632.41 275.96 635.57 263.81C639.55 248.55 638.18 233.68 636.28 222.5C636.1 221.44 636.52 220.37 637.38 219.72C640.21 217.55 647.54 213.14 660.65 212.88C661.82 212.86 662.85 213.64 663.15 214.77C668.64 235.43 671.95 263.82 659.7 283Z" />
					</g>
				</g>
				<g id="&lt;Group&gt;">
					<path id="&lt;Compound Path&gt;" fill-rule="evenodd" class="shp8" d="M645.25 289.79C644.78 289.79 644.33 289.7 643.9 289.52C641.63 288.55 640.84 285.23 642.15 282.13C642.91 280.34 644.25 278.92 645.75 278.31C646.77 277.9 647.77 277.89 648.66 278.26C650.93 279.24 651.72 282.55 650.41 285.65C649.65 287.44 648.31 288.87 646.81 289.48C646.28 289.69 645.76 289.79 645.25 289.79ZM647.31 278.54C646.87 278.54 646.42 278.63 645.96 278.82C644.59 279.37 643.36 280.69 642.66 282.35C641.47 285.17 642.12 288.16 644.12 289.01C644.87 289.34 645.73 289.32 646.6 288.97C647.97 288.41 649.2 287.1 649.9 285.44C651.09 282.62 650.44 279.62 648.44 278.77C648.09 278.62 647.7 278.54 647.31 278.54ZM650.15 285.55L650.16 285.55L650.15 285.55Z" />
				</g>
				<g id="&lt;Group&gt;">
					<g id="&lt;Group&gt;">
						<path id="&lt;Path&gt;" class="shp6" d="M593.29 294.41C579.62 290.06 570.61 288.91 566.26 290.97C559.74 294.06 553.74 302.93 558.19 301.87C561.16 301.17 564.41 299.84 567.95 297.9C560.58 302.41 557.8 305.3 559.6 306.57C561.4 307.83 565.48 306.47 571.86 302.49C563.51 308.55 560.39 311.91 562.48 312.56C564.57 313.2 568.76 311.2 575.07 306.54C567.53 312.5 564.99 315.82 567.43 316.51C571.1 317.55 576.72 309.07 579.42 310.97C582.13 312.87 589.02 321.6 595.22 314.73L593.29 294.41Z" />
					</g>
					<g id="&lt;Group&gt;">
						<path id="&lt;Path&gt;" class="shp8" d="M568.12 298.1L567.78 297.7C567.9 297.59 570.77 295.22 573.05 295.87L572.9 296.38C570.89 295.81 568.15 298.08 568.12 298.1Z" />
					</g>
					<g id="&lt;Group&gt;">
						<path id="&lt;Path&gt;" class="shp8" d="M572.03 302.69L571.68 302.29C571.8 302.19 574.54 299.84 577.88 300.1L577.84 300.63C574.7 300.39 572.06 302.67 572.03 302.69Z" />
					</g>
					<g id="&lt;Group&gt;">
						<path id="&lt;Path&gt;" class="shp8" d="M575.24 306.75L574.89 306.34C575.04 306.22 578.42 303.4 580.8 304.3L580.61 304.8C578.53 304.01 575.27 306.72 575.24 306.75Z" />
					</g>
				</g>
				<g id="&lt;Group&gt;">
					<g id="&lt;Group&gt;">
						<path id="&lt;Path&gt;" class="shp4" d="M568.09 326.32L502.25 326.32C500.87 326.32 499.65 325.44 499.21 324.15L485.53 283.28C484.84 281.22 486.38 279.1 488.57 279.1L551.89 279.1C554.77 279.1 557.33 280.93 558.24 283.65L571.13 322.14C571.82 324.2 570.28 326.32 568.09 326.32Z" />
					</g>
					<g id="&lt;Group&gt;">
						<path id="&lt;Path&gt;" class="shp4" d="M563.96 326.32L498.12 326.32C496.74 326.32 495.51 325.44 495.08 324.15L481.4 283.28C480.71 281.22 482.25 279.1 484.43 279.1L547.75 279.1C550.64 279.1 553.2 280.93 554.11 283.65L567 322.14C567.69 324.2 566.15 326.32 563.96 326.32Z" />
					</g>
					<g id="&lt;Group&gt;">
						<path id="&lt;Path&gt;" class="shp9" d="M517.83 301.37C517.83 299.82 519.62 299.19 521.18 299.19C522.74 299.19 525.29 300.89 525.27 303.07C525.26 305.41 523.42 305.72 521.86 305.72C520.3 305.72 517.83 303.35 517.83 301.37Z" />
					</g>
					<g id="&lt;Group&gt;">
						<path id="&lt;Path&gt;" class="shp4" d="M588.17 320.55L498.08 320.55L498.08 326.32L590.05 326.32C591.13 326.32 592 325.45 592 324.38C592 322.26 590.28 320.55 588.17 320.55Z" />
					</g>
					<g id="&lt;Group&gt;">
						<path id="&lt;Path&gt;" class="shp10" d="M559.28 299.76C559.25 299.64 556.02 287.52 553.93 283.76C551.87 280.06 549.32 279.31 549.3 279.31L549.41 278.89C549.52 278.92 552.15 279.68 554.3 283.55C556.42 287.36 559.56 299.15 559.69 299.65L559.28 299.76Z" />
					</g>
					<g id="&lt;Group&gt;">
						<path id="&lt;Path&gt;" class="shp10" d="M569.01 320.76C566.57 320.76 565.96 319.68 565.94 319.63L560.79 304.28L561.2 304.14L566.33 319.47C566.33 319.47 566.33 319.47 566.33 319.46C566.33 319.46 566.89 320.33 569.01 320.33L569.01 320.76Z" />
					</g>
				</g>
				<g id="&lt;Group&gt;">
					<path id="&lt;Path&gt;" class="shp11" d="M508.32 432.79L507.79 432.76C507.8 432.56 509.18 412.86 515.27 390.59C520.89 370.01 531.81 342.95 551.87 330.95L552.15 331.4C532.24 343.32 521.38 370.24 515.78 390.73C509.71 412.95 508.34 432.6 508.32 432.79Z" />
				</g>
				<g id="&lt;Group&gt;">
					<path id="&lt;Path&gt;" class="shp11" d="M552.28 470.2L551.74 470.2C551.96 439.55 561.99 415.89 562.09 415.66L562.58 415.87C562.47 416.1 552.49 439.67 552.28 470.2Z" />
				</g>
				<g id="&lt;Group&gt;">
					<g id="&lt;Group&gt;">
						<path id="&lt;Path&gt;" class="shp4" d="M569.68 182.52C569.49 182.49 564.98 181.57 563.53 178.42C562.76 176.76 563 174.79 564.25 172.58C564.8 171.6 565.31 170.71 565.78 169.89C569.03 164.22 570.13 162.31 569.05 158.01L569.44 157.92C570.56 162.37 569.35 164.47 566.13 170.09C565.66 170.91 565.15 171.8 564.6 172.78C563.42 174.87 563.18 176.71 563.89 178.25C565.26 181.21 569.72 182.12 569.76 182.13L569.68 182.52Z" />
					</g>
					<g id="&lt;Group&gt;">
						<path id="&lt;Path&gt;" class="shp4" d="M569.25 157.97C570.45 162.56 569.62 167.34 566.74 172.31C562.41 179.77 567.63 184.89 573.76 181.85C579.89 178.8 582.58 186.66 590.39 181.96C595.59 178.82 588.54 170.82 569.25 157.97Z" />
					</g>
					<g id="&lt;Group&gt;">
						<path id="&lt;Path&gt;" class="shp6" d="M599.24 181.78L594.59 172.04L593.23 169.2L585.24 152.46L587.2 170.05L588.37 180.61L588.71 183.62C588.99 186.05 587.37 188.01 583.84 189.49C582.62 191.67 582.04 195.42 587.49 196.92C593.89 198.68 604.4 192.66 607.84 186.62C603.11 185.49 600.25 183.88 599.24 181.78Z" />
					</g>
					<g id="&lt;Group&gt;">
						<path id="&lt;Path&gt;" class="shp4" d="M594.6 171.75C594.6 171.85 594.6 171.94 594.59 172.04C594.46 175.84 592.4 178.71 588.41 180.64L588.37 180.61L587.2 170.05C589.03 169.3 591.65 168.49 593.23 169.2C594.06 169.56 594.6 170.34 594.6 171.75Z" />
					</g>
					<g id="&lt;Group&gt;">
						<path id="&lt;Path&gt;" class="shp6" d="M567.97 155.96C567.53 144.67 574.59 135.22 583.75 134.86C592.9 134.51 600.68 143.37 601.12 154.66C601.56 165.96 594.5 175.4 585.35 175.76C576.19 176.12 568.41 167.25 567.97 155.96Z" />
					</g>
					<g id="&lt;Group&gt;">
						<path id="&lt;Path&gt;" class="shp6" d="M599.02 157.84C597.22 159.7 594.6 159.99 593.18 158.47C591.75 156.96 592.07 154.22 593.87 152.36C595.68 150.49 598.3 150.2 599.72 151.72C601.14 153.23 600.83 155.97 599.02 157.84Z" />
					</g>
					<g id="&lt;Group&gt;">
						<path id="&lt;Path&gt;" class="shp12" d="M576.14 168.89C579.92 168.83 583.67 168.07 587.39 166.59C587.85 170.3 586.04 172.36 581.96 172.77C579.59 173.01 577.65 171.71 576.14 168.89Z" />
					</g>
					<g id="&lt;Group&gt;">
						<path id="&lt;Path&gt;" class="shp1" d="M576.14 168.89C577.08 169.62 578.62 169.93 580.75 169.84C582.88 169.75 585.09 168.66 587.39 166.59C582.89 168.02 579.14 168.79 576.14 168.89Z" />
					</g>
					<g id="&lt;Group&gt;">
						<g id="&lt;Group&gt;">
							<path id="&lt;Path&gt;" class="shp13" d="M582.95 155.57C582.84 155.55 582.74 155.47 582.69 155.36C582.61 155.17 582.69 154.95 582.88 154.86C582.99 154.81 585.48 153.41 587.8 155.76C587.95 155.91 587.96 156.14 587.81 156.29C587.67 156.44 587.45 156.41 587.28 156.3C585.5 155.2 583.28 155.51 583.19 155.55C583.11 155.58 583.03 155.59 582.95 155.57Z" />
						</g>
					</g>
					<g id="&lt;Group&gt;">
						<path id="&lt;Path&gt;" class="shp13" d="M586.1 159.6C586.16 160.5 585.68 161.26 585.03 161.31C584.38 161.36 583.8 160.66 583.74 159.77C583.67 158.87 584.15 158.1 584.8 158.06C585.45 158.01 586.03 158.7 586.1 159.6Z" />
					</g>
					<g id="&lt;Group&gt;">
						<g id="&lt;Group&gt;">
							<path id="&lt;Path&gt;" class="shp13" d="M569.57 158.06C569.46 158.08 569.34 158.05 569.25 157.97C569.1 157.82 569.09 157.58 569.23 157.43C569.32 157.34 571.08 155.1 574.13 156.39C574.32 156.47 574.42 156.68 574.34 156.88C574.26 157.07 574.05 157.12 573.85 157.09C571.79 156.75 569.85 157.88 569.78 157.95C569.72 158.01 569.65 158.05 569.57 158.06Z" />
						</g>
					</g>
					<g id="&lt;Group&gt;">
						<path id="&lt;Path&gt;" class="shp13" d="M574.01 160.59C574.41 161.4 574.26 162.28 573.68 162.58C573.09 162.87 572.29 162.45 571.89 161.64C571.49 160.84 571.64 159.95 572.23 159.66C572.81 159.37 573.61 159.78 574.01 160.59Z" />
					</g>
					<g id="&lt;Group&gt;">
						<path id="&lt;Path&gt;" class="shp4" d="M576.85 138.85C577.28 143.57 580.46 146.21 586.39 146.79C595.3 147.65 601.56 151.16 600.62 157.59C599.68 164.02 585.92 177.82 596.61 182.54C607.31 187.26 604.7 177.78 616.17 179.55C627.63 181.33 629.09 166.05 620.91 157.54C612.73 149.03 614.99 125.57 585.65 127.75C566.09 129.21 560.2 137.61 567.99 152.96C574.11 148.77 577.07 144.07 576.85 138.85Z" />
					</g>
					<g id="&lt;Group&gt;">
						<path id="&lt;Path&gt;" class="shp1" d="M599.69 183.73C597.44 182.93 596.03 181.65 595.49 179.94C594.01 175.23 599.28 167.83 603.92 161.3C605.14 159.58 606.3 157.95 607.32 156.41C610.15 152.11 610.22 147.32 607.51 143.58C604.53 139.49 599.11 137.92 593.37 139.49C582.39 142.49 577.48 135.97 577.43 135.9L577.62 135.76C577.67 135.82 582.5 142.21 593.3 139.26C599.15 137.66 604.67 139.26 607.7 143.44C610.43 147.21 610.36 152.22 607.52 156.54C606.5 158.09 605.34 159.71 604.12 161.44C599.51 167.92 594.28 175.28 595.72 179.87C596.24 181.53 597.56 182.72 599.77 183.51L599.69 183.73Z" />
					</g>
					<g id="&lt;Group&gt;">
						<g id="&lt;Group&gt;">
							<path id="&lt;Compound Path&gt;" fill-rule="evenodd" class="shp14" d="M569.47 171.17C566.94 170.35 564.64 167.69 563.33 164.04C561.18 158.11 562.26 151.37 565.74 149.02C567.03 148.13 568.52 147.94 570.03 148.43C572.55 149.25 574.85 151.91 576.17 155.55C578.32 161.47 577.23 168.22 573.76 170.57C572.98 171.11 572.13 171.39 571.25 171.42C570.66 171.44 570.07 171.36 569.47 171.17ZM575.47 155.81C574.23 152.38 572.11 149.89 569.8 149.13C568.5 148.72 567.24 148.89 566.15 149.63C562.93 151.8 561.98 158.16 564.02 163.79C565.26 167.21 567.38 169.71 569.69 170.47C570.99 170.86 572.25 170.71 573.34 169.97C576.56 167.79 577.51 161.43 575.47 155.81Z" />
						</g>
					</g>
					<g id="&lt;Group&gt;" style="opacity: 0.302">
						<path id="&lt;Path&gt;" class="shp1" d="M595.19 150.89C596.75 156.68 594.87 163.03 590.99 165.08C587.11 167.13 582.71 164.1 581.15 158.31C579.59 152.53 581.47 146.17 585.35 144.13C589.22 142.08 593.63 145.11 595.19 150.89Z" />
					</g>
					<g id="&lt;Group&gt;" style="opacity: 0.302">
						<path id="&lt;Path&gt;" class="shp1" d="M576.34 156.03C577.91 161.84 576.38 168.27 572.93 170.39C569.49 172.51 565.43 169.51 563.87 163.7C562.3 157.89 563.83 151.46 567.28 149.34C570.72 147.22 574.78 150.22 576.34 156.03Z" />
					</g>
					<g id="&lt;Group&gt;">
						<g id="&lt;Group&gt;">
							<path id="&lt;Compound Path&gt;" fill-rule="evenodd" class="shp14" d="M585.48 165.38C582.88 164.24 580.83 161.52 579.84 157.92C578.15 151.74 580.25 144.91 584.52 142.7C586.24 141.81 588.1 141.75 589.9 142.53C592.49 143.67 594.54 146.38 595.52 149.97C597.22 156.16 595.12 162.99 590.84 165.2C590 165.65 589.12 165.89 588.23 165.92C587.31 165.96 586.39 165.77 585.48 165.38ZM584.85 143.35C580.88 145.41 578.95 151.86 580.55 157.72C581.46 161.06 583.42 163.67 585.78 164.7C587.35 165.37 589 165.31 590.51 164.55C594.49 162.48 596.42 156.03 594.82 150.17C593.91 146.84 591.96 144.24 589.61 143.2C588.8 142.85 587.98 142.69 587.16 142.72C586.38 142.75 585.6 142.96 584.85 143.35Z" />
						</g>
					</g>
					<g id="&lt;Group&gt;">
						<g id="&lt;Group&gt;">
							<path id="&lt;Path&gt;" class="shp14" d="M575.65 158.25C575.8 158.24 575.96 158.18 576.08 158.07C576.15 158 577.88 156.54 580.99 157C581.35 157.04 581.71 156.8 581.77 156.43C581.83 156.05 581.57 155.7 581.2 155.65C577.45 155.01 575.26 156.96 575.16 157.04C574.88 157.29 574.85 157.73 575.11 158.01C575.25 158.18 575.45 158.25 575.65 158.25Z" />
						</g>
					</g>
				</g>
			</g>
			<g id="&lt;Group&gt;">
				<g id="&lt;Group&gt;">
					<g id="&lt;Group&gt;">
						<path id="&lt;Path&gt;" class="shp5" d="M674.28 846.46C659.05 851.73 642.42 843.65 637.15 828.42L576.49 653.27C571.21 638.03 579.29 621.4 594.53 616.12L594.53 616.12C609.77 610.85 626.39 618.93 631.67 634.16L692.33 809.31C697.61 824.55 689.53 841.18 674.28 846.46Z" />
					</g>
					<g id="&lt;Group&gt;">
						<g id="&lt;Group&gt;">
							<path id="&lt;Path&gt;" class="shp15" d="M627.06 493.25C755.45 387.5 841.68 266.1 885.74 129.06L1141.56 769.18C944.51 676.49 790.93 630.71 680.81 631.84C647.78 622.39 626.64 602.68 617.37 572.71C607.38 540.39 610.61 513.91 627.06 493.25Z" />
						</g>
						<g id="&lt;Group&gt;">
							<path id="&lt;Path&gt;" class="shp5" d="M929.82 477.46C1004.43 669.83 1125 802.5 1199.13 773.78C1273.26 745.07 1272.87 565.84 1198.26 373.47C1123.65 181.11 1003.08 48.44 928.95 77.15C854.82 105.87 855.21 285.09 929.82 477.46Z" />
						</g>
						<g id="&lt;Group&gt;">
							<path id="&lt;Compound Path&gt;" fill-rule="evenodd" class="shp4" d="M1172.84 751.96C1144.66 751.96 1109.74 728.76 1072.4 684.73C1027.63 631.94 984.56 555.39 951.13 469.2C917.7 383.01 897.9 297.45 895.37 228.29C892.83 158.63 908.18 113.79 938.59 102.01C969 90.23 1010.58 113.03 1055.68 166.2C1100.46 219 1143.53 295.54 1176.95 381.73C1210.38 467.93 1230.18 553.48 1232.71 622.65C1235.25 692.3 1219.91 737.15 1189.49 748.93C1184.26 750.95 1178.69 751.96 1172.84 751.96ZM955.24 101.78C949.72 101.78 944.5 102.73 939.6 104.63C924.95 110.3 913.91 124.19 906.81 145.9C899.86 167.11 896.96 194.8 898.18 228.19C900.69 297.04 920.43 382.28 953.75 468.18C987.07 554.09 1029.97 630.35 1074.55 682.92C1096.16 708.41 1116.98 726.91 1136.42 737.9C1156.31 749.15 1173.82 751.98 1188.48 746.31C1203.13 740.63 1214.17 726.75 1221.27 705.04C1228.22 683.82 1231.12 656.14 1229.9 622.75C1227.39 553.89 1207.65 468.66 1174.33 382.75C1141.02 296.84 1098.11 220.58 1053.54 168.02C1031.92 142.53 1011.1 124.03 991.66 113.03C978.42 105.54 966.23 101.78 955.24 101.78Z" />
						</g>
						<g id="&lt;Group&gt;">
							<path id="&lt;Path&gt;" class="shp15" d="M969.42 375.87L1092.44 364.51C1108.21 362.74 1123.19 371.8 1128.93 386.58L1138.51 411.28C1145.31 428.83 1139.35 448.75 1124.03 459.7L1020.21 533.85C969.89 492.4 952.96 439.74 969.42 375.87Z" />
						</g>
						<g id="&lt;Group&gt;">
							<path id="&lt;Path&gt;" class="shp4" d="M1123.51 460.92C1123.23 460.81 1095.9 448.89 1084.09 414.71C1077.88 396.76 1080.2 383.83 1083.24 376.15C1086.57 367.74 1091.38 363.66 1091.58 363.49L1093.3 365.53C1093.25 365.57 1088.73 369.44 1085.66 377.28C1082.83 384.53 1080.69 396.75 1086.6 413.84C1098.04 446.91 1124.29 458.36 1124.55 458.47L1123.51 460.92Z" />
						</g>
						<g id="&lt;Group&gt;">
							<path id="&lt;Path&gt;" class="shp15" d="M627.06 493.25L540.16 544.27C522.24 554.8 514.58 576.76 522.1 596.13L535.67 631.12C543.46 651.22 565.13 662.27 586 656.78L680.81 631.84C660.26 626.83 643.5 606.56 630.54 571.02C620.48 543.44 619.32 517.52 627.06 493.25Z" />
						</g>
						<g id="&lt;Group&gt;">
							<path id="&lt;Path&gt;" class="shp4" d="M680.81 633.17C680.51 633.17 680.21 633.07 679.96 632.87C646.37 605.04 633.42 568.52 628.47 542.78C623.1 514.92 625.71 493.3 625.74 493.09C625.83 492.36 626.5 491.84 627.23 491.93C627.96 492.02 628.47 492.69 628.38 493.42C628.36 493.63 625.8 514.9 631.1 542.36C635.98 567.65 648.71 603.51 681.66 630.82C682.23 631.28 682.31 632.12 681.84 632.69C681.57 633.01 681.19 633.17 680.81 633.17Z" />
						</g>
						<g id="&lt;Group&gt;">
							<path id="&lt;Path&gt;" class="shp4" d="M780.52 644.86C780.22 644.86 779.91 644.75 779.65 644.53C751.68 620.31 729.59 594.05 714 566.46C701.52 544.37 693.16 521.39 689.15 498.15C682.31 458.54 690.64 431.51 690.73 431.24C690.95 430.54 691.7 430.15 692.4 430.37C693.1 430.59 693.49 431.34 693.27 432.04C693.19 432.3 685.03 458.84 691.8 497.86C695.77 520.77 704.05 543.44 716.38 565.25C731.81 592.53 753.69 618.53 781.4 642.52C781.95 643 782.01 643.84 781.53 644.4C781.27 644.7 780.9 644.86 780.52 644.86Z" />
						</g>
					</g>
				</g>
			</g>
			<g id="&lt;Group&gt;">
				<g id="&lt;Group&gt;">
					<path id="&lt;Path&gt;" class="shp6" d="M772.54 809.85C770.11 814.18 745.71 851.98 750.81 888.94L777.37 879.34L789.51 829.51L772.54 809.85Z" />
				</g>
				<g id="&lt;Group&gt;">
					<path id="&lt;Path&gt;" class="shp15" d="M878.58 794.36C867.7 774.85 849.02 767.8 822.54 773.19C782.83 781.28 761.15 838.13 771.93 950.72C813.99 934 862.37 932.38 917.06 945.86C908.06 873.16 895.23 822.66 878.58 794.36Z" />
				</g>
				<g id="&lt;Group&gt;">
					<path id="&lt;Path&gt;" class="shp15" d="M908.87 782.54L880.95 810.41C833.24 823.3 802.76 829.67 789.51 829.51C776.25 829.36 767.02 824.44 761.8 814.75C772.99 797.04 789.9 784.18 812.53 776.17C815.72 775.03 819.05 774.03 822.54 773.19C828.4 771.79 834.36 770.98 840.28 770.62C863.71 769.23 886.57 773.2 908.87 782.54Z" />
				</g>
				<g id="&lt;Group&gt;">
					<path id="&lt;Path&gt;" class="shp4" d="M908.87 782.54C913.33 787.39 906.45 792.69 898.74 800.38C891.03 808.08 883.07 812.57 880.95 810.41C878.84 808.25 883.37 800.26 891.08 792.56C898.79 784.87 906.82 780.31 908.87 782.54Z" />
				</g>
				<g id="&lt;Group&gt;">
					<path id="&lt;Path&gt;" class="shp6" d="M884.67 810.52C884.39 806.81 886.58 802.59 891.25 797.85C895.46 793.57 900.79 790.77 904.37 789.22C906.5 788.3 908.95 789.34 909.8 791.51L912.04 797.28L901.61 803.99L884.67 810.52Z" />
				</g>
				<g id="&lt;Group&gt;">
					<path id="&lt;Path&gt;" class="shp5" d="M835.34 913.75C892.75 882.63 931.75 884.05 952.33 917.99C975.18 955.68 940.83 990.78 813.42 987.21C805.02 983.28 801.85 971.12 803.89 950.72C804.7 942.64 815.19 930.32 835.34 913.75Z" />
				</g>
				<g id="&lt;Group&gt;">
					<path id="&lt;Path&gt;" class="shp5" d="M835.34 913.75C758.87 882.42 713.07 876.55 697.94 896.13C671.85 929.89 696.87 987.21 817.77 966.72L832.51 950.72L835.34 913.75Z" />
				</g>
				<g id="&lt;Group&gt;">
					<path id="&lt;Path&gt;" class="shp11" d="M813.28 987.41C799.13 977.31 803.61 950.94 803.66 950.68L803.68 950.54L803.81 950.49L890.88 918.8L891.05 919.26L804.11 950.9C803.95 951.88 803.03 958.04 803.58 965.16C804.13 972.28 806.31 981.84 813.56 987.01L813.28 987.41Z" />
				</g>
				<g id="&lt;Group&gt;">
					<path id="&lt;Path&gt;" class="shp4" d="M803.16 959.14C789.07 959.71 778.71 961.62 772.09 964.87C762.16 969.74 767.47 981.62 787.63 981.31C801.07 981.09 807.28 979.99 806.26 977.99C803.71 971.03 802.67 964.75 803.16 959.14Z" />
				</g>
				<g id="&lt;Group&gt;">
					<g id="&lt;Group&gt;">
						<path id="&lt;Path&gt;" class="shp6" d="M830.22 915.99C823.22 915.99 817.47 914.22 812.81 910.7C804 904.06 802.36 893.47 803.64 886.42L812.07 881.52C812.49 879.2 828.75 887.8 828.72 887.79C828.79 887.81 836.48 890.03 863.13 876.42C881.68 866.94 891.03 853.48 891.71 835.28C892.23 821.57 886.11 813.86 884.67 810.52C884.47 810.08 893.63 800.9 893.37 799.96L900.23 796.47C900.01 795.69 906.83 793 906.74 792.77L912.04 797.28C914.65 803.33 920.21 817.22 919.49 836.35C918.75 856.22 910.54 883.65 875.68 901.47C856.67 911.18 841.75 915.99 830.22 915.99Z" />
					</g>
				</g>
				<g id="&lt;Group&gt;">
					<g id="&lt;Group&gt;">
						<path id="&lt;Path&gt;" class="shp4" d="M824.57 917.1L750.24 917.1C748.68 917.1 747.3 916.11 746.81 914.65L731.37 868.52C730.59 866.2 732.33 863.8 734.79 863.8L806.27 863.8C809.53 863.8 812.42 865.87 813.45 868.94L828 912.38C828.77 914.71 827.03 917.1 824.57 917.1Z" />
					</g>
					<g id="&lt;Group&gt;">
						<path id="&lt;Path&gt;" class="shp4" d="M819.9 917.1L745.57 917.1C744.02 917.1 742.64 916.11 742.15 914.65L726.7 868.52C725.92 866.2 727.66 863.8 730.13 863.8L801.61 863.8C804.86 863.8 807.76 865.87 808.78 868.94L823.33 912.38C824.11 914.71 822.37 917.1 819.9 917.1Z" />
					</g>
					<g id="&lt;Group&gt;">
						<path id="&lt;Path&gt;" class="shp9" d="M767.82 888.94C767.82 887.19 769.84 886.48 771.61 886.48C773.37 886.48 776.25 888.4 776.23 890.85C776.21 893.5 774.14 893.84 772.38 893.84C770.61 893.84 767.82 891.17 767.82 888.94Z" />
					</g>
					<g id="&lt;Group&gt;">
						<path id="&lt;Path&gt;" class="shp4" d="M847.23 910.58L745.54 910.58L745.54 917.1L849.35 917.1C850.57 917.1 851.55 916.12 851.55 914.91C851.55 912.52 849.61 910.58 847.23 910.58Z" />
					</g>
					<g id="&lt;Group&gt;">
						<path id="&lt;Path&gt;" class="shp10" d="M814.62 887.12C814.58 886.98 810.93 873.31 808.57 869.06C806.25 864.87 803.38 864.04 803.35 864.03L803.48 863.57C803.6 863.6 806.57 864.46 808.99 868.82C811.38 873.12 814.93 886.43 815.08 886.99L814.62 887.12Z" />
					</g>
					<g id="&lt;Group&gt;">
						<path id="&lt;Path&gt;" class="shp10" d="M825.6 910.83C822.85 910.83 822.16 909.61 822.13 909.55L816.32 892.22L816.78 892.06L822.57 909.36C822.57 909.36 822.57 909.36 822.57 909.36C822.58 909.36 823.2 910.34 825.6 910.34L825.6 910.83Z" />
					</g>
				</g>
				<g id="&lt;Group&gt;">
					<path id="&lt;Compound Path&gt;" fill-rule="evenodd" class="shp16" d="M897.04 876C896.6 876 896.2 875.89 895.84 875.69C894.02 874.63 894.08 871.21 895.96 867.92C897.19 865.77 898.95 864.17 900.55 863.74C901.3 863.54 902 863.6 902.57 863.94C904.39 865 904.34 868.41 902.46 871.7C901.23 873.85 899.47 875.45 897.87 875.88C897.58 875.96 897.31 876 897.04 876ZM901.38 864.59C901.2 864.59 901 864.62 900.8 864.67C899.46 865.03 897.89 866.49 896.8 868.4C895.23 871.13 895.02 874.09 896.33 874.85C896.68 875.05 897.11 875.09 897.62 874.95C898.96 874.59 900.53 873.13 901.62 871.22C903.18 868.49 903.39 865.53 902.09 864.77C901.88 864.65 901.64 864.59 901.38 864.59Z" />
				</g>
				<g id="&lt;Group&gt;">
					<path id="&lt;Path&gt;" class="shp6" d="M840.89 770.55C836.01 770.41 832.3 769.91 829.5 766.6L820.8 756.38L818.27 753.4L803.39 735.9L811.21 756.36L815.9 768.65L817.38 772.54C818.39 775.18 817.06 776.41 816.12 779.5C815.74 780.75 813.18 788.45 819.86 788.49C828.18 788.55 838.71 778.88 841.02 770.53C840.98 770.54 840.94 770.55 840.89 770.55Z" />
				</g>
				<g id="&lt;Group&gt;">
					<path id="&lt;Path&gt;" class="shp4" d="M823.22 749.81C834.14 739.31 836.45 729.63 830.15 720.77C823.85 711.91 819.91 719.02 818.34 742.1L820.98 750.1L823.22 749.81Z" />
				</g>
				<g id="&lt;Group&gt;">
					<path id="&lt;Path&gt;" class="shp4" d="M820.72 756.02C820.75 756.14 820.78 756.26 820.8 756.38C821.82 760.98 820.2 765.08 815.95 768.67L815.9 768.65L811.21 756.36C813.2 754.87 816.14 753.06 818.27 753.4C819.39 753.57 820.29 754.33 820.72 756.02Z" />
				</g>
				<g id="&lt;Group&gt;">
					<path id="&lt;Path&gt;" class="shp6" d="M786.04 747.47C782.34 735.16 787.54 722.68 797.65 719.59C807.75 716.49 818.94 723.96 822.64 736.27C826.33 748.57 821.13 761.05 811.03 764.15C800.92 767.24 789.73 759.78 786.04 747.47Z" />
				</g>
				<g id="&lt;Group&gt;">
					<path id="&lt;Path&gt;" class="shp4" d="M819.17 734.49C815.7 737.02 812.5 737.21 809.58 735.08C805.21 731.87 802.12 728.83 792.33 733.76C782.53 738.69 771.82 736.47 769.84 730.92C767.86 725.37 772.52 721.12 778.67 721.4C784.82 721.67 777.37 718.3 781.65 712.47C785.93 706.64 796.78 712.65 802.16 709.75C807.54 706.86 826.7 704.35 830.15 720.77L819.17 734.49Z" />
				</g>
				<g id="&lt;Group&gt;">
					<path id="&lt;Path&gt;" class="shp6" d="M823.27 737.78C822.01 739.72 819.6 740.37 817.88 739.24C816.16 738.1 815.79 735.61 817.04 733.67C818.3 731.73 820.71 731.07 822.43 732.21C824.15 733.34 824.53 735.83 823.27 737.78Z" />
				</g>
				<g id="&lt;Group&gt;">
					<path id="&lt;Path&gt;" class="shp1" d="M780.65 729C780.29 729 779.94 728.96 779.6 728.88C777.39 728.32 776.77 727.16 776.93 726.27C777.11 725.24 778.36 724.26 780.32 724.46C783.24 724.76 784.83 723.78 784.85 723.77L785.24 724.37C785.16 724.42 783.43 725.5 780.25 725.17C778.79 725.03 777.76 725.69 777.64 726.39C777.51 727.13 778.33 727.81 779.77 728.18C783.55 729.14 790.06 723.28 790.12 723.22L790.6 723.75C790.35 723.98 784.77 729 780.65 729Z" />
				</g>
				<g id="&lt;Group&gt;">
					<path id="&lt;Path&gt;" class="shp1" d="M797.57 715.25C793.59 715.25 790.02 713.53 789.71 713.17L790.24 712.69C790.6 712.99 796.43 715.81 801.41 713.86C803.07 713.21 804.53 712.44 805.95 711.69C808.85 710.16 811.35 708.84 814.21 709.39L814.07 710.09C811.46 709.58 809.06 710.85 806.28 712.32C804.85 713.08 803.37 713.86 801.67 714.53C800.33 715.05 798.93 715.25 797.57 715.25Z" />
				</g>
				<g id="&lt;Group&gt;">
					<path id="&lt;Compound Path&gt;" fill-rule="evenodd" class="shp1" d="M825.18 719.92C824.08 719.92 822.17 718.2 821.7 717.25C821.32 716.48 821.7 716.13 821.89 716.02C823.32 715.11 825.4 717.93 825.8 718.51L825.85 718.62C826.08 719.5 825.72 719.78 825.47 719.87C825.39 719.9 825.29 719.92 825.18 719.92ZM822.51 716.56C822.42 716.56 822.34 716.58 822.27 716.62C822.23 716.68 822.29 717.06 822.99 717.78C823.96 718.78 824.99 719.27 825.22 719.2C825.21 719.19 825.23 719.1 825.17 718.87C824.45 717.84 823.21 716.56 822.51 716.56Z" />
				</g>
				<g id="&lt;Group&gt;">
					<g id="&lt;Group&gt;">
						<path id="&lt;Path&gt;" class="shp13" d="M800.66 742.47C800.55 742.46 800.44 742.39 800.38 742.28C800.27 742.09 800.34 741.85 800.53 741.75C800.64 741.68 803.06 740.01 805.65 742.23C805.81 742.37 805.84 742.61 805.7 742.78C805.57 742.94 805.35 742.93 805.16 742.83C803.24 741.86 801 742.38 800.91 742.43C800.83 742.47 800.74 742.49 800.66 742.47Z" />
					</g>
				</g>
				<g id="&lt;Group&gt;">
					<path id="&lt;Path&gt;" class="shp13" d="M804.25 746.35C804.39 747.27 803.97 748.11 803.31 748.21C802.65 748.32 801.99 747.66 801.84 746.74C801.7 745.82 802.12 744.98 802.78 744.87C803.44 744.77 804.1 745.43 804.25 746.35Z" />
				</g>
				<g id="&lt;Group&gt;">
					<g id="&lt;Group&gt;">
						<path id="&lt;Path&gt;" class="shp13" d="M787.12 747.39C787.04 747.41 786.94 747.38 786.85 747.29C786.71 747.15 786.68 746.91 786.77 746.75C786.83 746.66 787.96 744.3 790.56 745.52C790.72 745.59 790.83 745.81 790.79 746.01C790.75 746.21 790.59 746.27 790.42 746.24C788.73 745.97 787.33 747.19 787.28 747.26C787.24 747.33 787.18 747.37 787.12 747.39Z" />
					</g>
				</g>
				<g id="&lt;Group&gt;">
					<path id="&lt;Path&gt;" class="shp13" d="M791.98 749.57C792.47 750.37 792.39 751.3 791.82 751.65C791.25 752.01 790.39 751.65 789.91 750.85C789.43 750.05 789.5 749.12 790.07 748.77C790.64 748.41 791.5 748.77 791.98 749.57Z" />
				</g>
				<g id="&lt;Group&gt;">
					<g id="&lt;Group&gt;">
						<path id="&lt;Path&gt;" class="shp11" d="M803.07 759.37C801.71 759.37 800.75 759.14 800.72 759.13C800.58 759.09 800.49 758.95 800.53 758.8C800.57 758.66 800.72 758.57 800.86 758.61C801.13 758.67 807.43 760.21 810.54 754.73C810.61 754.6 810.78 754.55 810.91 754.62C811.04 754.7 811.08 754.86 811.01 755C808.92 758.69 805.4 759.37 803.07 759.37Z" />
					</g>
					<g id="&lt;Group&gt;">
						<path id="&lt;Path&gt;" class="shp11" d="M811.56 755.95C811.45 755.95 811.34 755.88 811.31 755.77C811.18 755.39 810.81 754.82 809.77 754.21L809.69 754.16C809.56 754.08 809.53 753.91 809.61 753.79C809.7 753.66 809.86 753.63 809.99 753.71C811 754.29 811.6 754.92 811.82 755.6C811.87 755.74 811.79 755.89 811.65 755.94C811.62 755.95 811.59 755.95 811.56 755.95Z" />
					</g>
				</g>
				<g id="&lt;Group&gt;">
					<path id="&lt;Path&gt;" class="shp4" d="M777.58 827.38L776.45 827.01L780.84 813.67L781.97 814.04L777.58 827.38Z" />
				</g>
				<g id="&lt;Group&gt;">
					<path id="&lt;Compound Path&gt;" fill-rule="evenodd" class="shp1" d="M789.8 762.76C789.55 762.76 789.28 762.74 789.02 762.7C786.14 762.32 783.16 759.89 781.03 756.2C777.57 750.22 777.41 742.71 780.68 739.47C781.89 738.27 783.44 737.76 785.15 737.99C788.03 738.37 791.01 740.8 793.14 744.49C796.6 750.48 796.75 757.98 793.49 761.22C792.46 762.23 791.2 762.76 789.8 762.76ZM784.37 738.74C783.19 738.74 782.12 739.19 781.25 740.04C778.23 743.04 778.44 750.11 781.73 755.8C783.73 759.27 786.5 761.55 789.12 761.9C790.58 762.1 791.89 761.66 792.92 760.65C795.94 757.65 795.73 750.58 792.44 744.89C790.44 741.42 787.67 739.14 785.04 738.79C784.82 738.76 784.59 738.74 784.37 738.74Z" />
				</g>
				<g id="&lt;Group&gt;" style="opacity: 0.302">
					<path id="&lt;Path&gt;" class="shp1" d="M812.62 735.69C815.42 741.65 814.64 748.89 810.89 751.87C807.13 754.86 801.82 752.45 799.01 746.49C796.21 740.54 796.99 733.29 800.74 730.31C804.5 727.32 809.82 729.73 812.62 735.69Z" />
				</g>
				<g id="&lt;Group&gt;" style="opacity: 0.302">
					<path id="&lt;Path&gt;" class="shp1" d="M793.42 744.97C796.23 750.95 795.85 758.21 792.57 761.18C789.29 764.16 784.35 761.71 781.54 755.73C778.73 749.75 779.11 742.49 782.39 739.51C785.67 736.54 790.61 738.98 793.42 744.97Z" />
				</g>
				<g id="&lt;Group&gt;">
					<path id="&lt;Compound Path&gt;" fill-rule="evenodd" class="shp1" d="M806.68 753.47C806.15 753.47 805.6 753.41 805.05 753.28C802.04 752.57 799.3 750.03 797.54 746.33C794.51 739.97 795.43 732.16 799.57 728.92C801.24 727.62 803.22 727.19 805.29 727.68C808.3 728.39 811.04 730.92 812.8 734.63C815.82 740.99 814.91 748.79 810.76 752.03C809.54 752.99 808.15 753.47 806.68 753.47ZM803.66 728.29C802.37 728.29 801.15 728.72 800.07 729.56C796.21 732.58 795.4 739.95 798.27 745.98C799.9 749.41 802.5 751.85 805.23 752.49C807.05 752.92 808.79 752.54 810.26 751.39C814.13 748.37 814.94 741.01 812.07 734.98C810.44 731.54 807.83 729.11 805.1 728.46C804.61 728.35 804.13 728.29 803.66 728.29Z" />
				</g>
				<g id="&lt;Group&gt;">
					<path id="&lt;Path&gt;" class="shp1" d="M792.94 747.52C792.78 747.52 792.62 747.47 792.48 747.36C792.15 747.11 792.09 746.63 792.34 746.3C792.42 746.2 794.38 743.7 798.55 743.6C798.96 743.61 799.31 743.92 799.32 744.33C799.33 744.75 799 745.1 798.58 745.11C795.13 745.19 793.56 747.2 793.54 747.22C793.39 747.41 793.17 747.52 792.94 747.52Z" />
				</g>
			</g>
			<g id="&lt;Group&gt;">
				<g id="&lt;Group&gt;">
					<g id="&lt;Group&gt;">
						<g id="&lt;Group&gt;">
							<path id="&lt;Path&gt;" class="shp6" d="M1333.93 517.04C1330.82 513.97 1338.19 506.59 1356.05 494.91C1357.84 493.65 1378.58 516.57 1412.68 505.76C1424.83 501.91 1441.62 480.65 1442.83 477.49C1442.94 477.21 1451.9 480.3 1469.73 486.74C1467.53 492.46 1468.6 512.57 1455.53 524.6C1428.49 549.5 1386.29 554.32 1333.93 517.04Z" />
						</g>
					</g>
					<g id="&lt;Group&gt;">
						<path id="&lt;Path&gt;" class="shp4" d="M1496.56 854.67C1496.4 860.82 1494.24 864.77 1490.08 866.5C1483.83 869.11 1465.74 871.46 1472.5 877.39C1476.38 880.79 1494.67 878.6 1499.83 878.6C1504.99 878.6 1509.84 880.85 1513.67 877.39C1516.49 874.86 1516.49 867.28 1513.67 854.67C1510.7 856.22 1507.88 856.96 1505.21 856.89C1501.36 856.79 1498.48 856.05 1496.56 854.67Z" />
					</g>
					<g id="&lt;Group&gt;">
						<path id="&lt;Path&gt;" class="shp15" d="M1442.67 576.12C1441.84 603.89 1445.86 644.41 1454.72 697.69C1464.32 755.37 1475.65 813.5 1481.21 841.37C1483.19 851.34 1491.58 858.63 1501.51 859.03L1506.85 859.24C1517.6 859.67 1526.32 850.44 1525.53 839.47L1512.05 650.93L1508.73 588.88L1442.67 576.12Z" />
					</g>
					<g id="&lt;Group&gt;">
						<path id="&lt;Path&gt;" class="shp4" d="M1555.71 854.67C1555.55 860.82 1553.39 864.77 1549.23 866.5C1542.98 869.11 1524.89 871.46 1531.65 877.39C1535.53 880.79 1553.82 878.6 1558.98 878.6C1564.14 878.6 1568.99 880.85 1572.82 877.39C1575.64 874.86 1575.64 867.28 1572.82 854.67C1569.85 856.22 1567.03 856.96 1564.36 856.89C1560.51 856.79 1557.63 856.05 1555.71 854.67Z" />
					</g>
					<g id="&lt;Group&gt;">
						<path id="&lt;Path&gt;" class="shp15" d="M1501.82 576.12C1500.99 603.89 1505.01 644.41 1513.87 697.69C1523.47 755.37 1534.8 813.5 1540.36 841.37C1542.34 851.34 1550.73 858.63 1560.66 859.03L1566 859.24C1576.75 859.67 1585.47 850.44 1584.68 839.47L1571.2 650.93L1567.88 588.88L1501.82 576.12Z" />
					</g>
					<g id="&lt;Group&gt;">
						<path id="&lt;Path&gt;" class="shp4" d="M1574.41 621.77C1574.28 626.8 1543.89 628.8 1506.3 627.62C1468.72 626.45 1438.68 621.25 1438.81 616.23C1438.94 611.2 1469.18 608.25 1506.77 609.42C1544.35 610.6 1574.54 616.75 1574.41 621.77Z" />
					</g>
					<g id="&lt;Group&gt;">
						<path id="&lt;Path&gt;" class="shp7" d="M1565.21 479.5C1560.77 461.94 1542.21 453.07 1509.52 452.89C1438.81 452.5 1445.36 517.48 1438.81 616.23C1485.25 609.66 1530.46 611.1 1574.44 620.54C1578.52 553.34 1575.44 506.33 1565.21 479.5Z" />
					</g>
					<g id="&lt;Group&gt;">
						<path id="&lt;Path&gt;" class="shp7" d="M1583.31 475.72L1551.28 493.44C1504.53 497.69 1474.95 498.79 1462.54 496.74C1450.13 494.7 1442.22 489.12 1438.81 480C1452.03 466.33 1469.87 457.66 1492.34 454.01C1495.51 453.49 1498.79 453.11 1502.2 452.89C1507.91 452.52 1513.64 452.6 1519.23 453.23C1547.71 456.44 1569.06 463.94 1583.31 475.72Z" />
					</g>
					<g id="&lt;Group&gt;">
						<path id="&lt;Path&gt;" class="shp6" d="M1516.26 446.86L1512.56 434.91L1511.49 431.44L1505.15 410.99L1504.32 431.33L1503.82 443.54L1503.66 447.4C1503.55 450.03 1501.95 450.58 1500.01 452.86C1499.22 453.78 1494.17 459.38 1499.9 461.91C1507.03 465.06 1520.37 460.29 1525.44 454.04C1525.4 454.03 1517.46 450.72 1516.26 446.86Z" />
					</g>
					<g id="&lt;Group&gt;">
						<path id="&lt;Path&gt;" class="shp15" d="M1444.73 620.29C1471.88 612.31 1513.57 613.79 1569.8 624.76L1570.45 636.89L1446.81 641.26L1444.73 620.29Z" />
					</g>
					<g id="&lt;Group&gt;">
						<path id="&lt;Path&gt;" class="shp4" d="M1583.97 476.46C1586.69 480.3 1582.69 487.89 1575.04 493.41C1567.39 498.93 1558.99 500.29 1556.27 496.45C1553.56 492.61 1557.56 485.02 1565.21 479.5C1572.86 473.98 1581.26 472.62 1583.97 476.46Z" />
					</g>
					<g id="&lt;Group&gt;">
						<g id="&lt;Group&gt;">
							<path id="&lt;Path&gt;" class="shp6" d="M1592.77 630.44C1589.82 597.99 1583.05 551.58 1567.57 514.83C1563.99 506.31 1562.49 503.11 1559.69 498.46C1557.44 494.72 1561.47 486.5 1567.83 482.58C1573.8 478.9 1583.09 479.5 1584.56 481.32C1587.06 484.42 1589.73 490.36 1593.88 499.78C1608.31 532.53 1616.95 574.83 1620.45 629.37L1592.77 630.44Z" />
						</g>
					</g>
					<g id="&lt;Group&gt;">
						<g id="&lt;Group&gt;">
							<path id="&lt;Path&gt;" class="shp4" d="M1488.85 403.31C1487.99 406.61 1487.99 410.33 1488.85 414.46C1489.71 418.6 1492.24 415.58 1496.45 405.41L1488.85 403.31Z" />
						</g>
						<g id="&lt;Group&gt;">
							<path id="&lt;Path&gt;" class="shp6" d="M1488.1 416.25C1489.67 404.25 1499.02 395.59 1508.97 396.89C1518.92 398.2 1525.71 408.98 1524.14 420.98C1522.56 432.98 1513.22 441.65 1503.26 440.35C1493.31 439.04 1486.52 428.25 1488.1 416.25Z" />
						</g>
						<g id="&lt;Group&gt;">
							<path id="&lt;Path&gt;" class="shp4" d="M1524.59 414.71L1515.79 413.8C1513.86 413.6 1512.09 412.56 1511.04 410.92C1509.24 408.1 1507.07 406.65 1498.87 406.96C1488.47 407.35 1481.61 401.15 1480.49 395.72C1479.35 390.17 1484.66 386.41 1489.88 389.05C1495.1 391.7 1492.86 385.21 1497.88 384.52C1507.26 383.23 1509.01 390.46 1516.69 390.23C1526.76 389.92 1544.79 397.57 1536.24 415.29L1524.59 414.71Z" />
						</g>
						<g id="&lt;Group&gt;">
							<g id="&lt;Group&gt;">
								<path id="&lt;Path&gt;" class="shp13" d="M1505.16 417.7C1505.07 417.64 1505 417.54 1504.99 417.42C1504.97 417.22 1505.12 417.04 1505.33 417.02C1505.45 417.01 1508.19 416.52 1509.57 419.44C1509.66 419.62 1509.59 419.84 1509.41 419.93C1509.22 420.02 1509.04 419.93 1508.91 419.77C1507.63 418.18 1505.49 417.75 1505.39 417.76C1505.3 417.76 1505.23 417.74 1505.16 417.7Z" />
							</g>
						</g>
						<g id="&lt;Group&gt;">
							<path id="&lt;Path&gt;" class="shp13" d="M1506.76 422.43C1506.53 423.27 1505.84 423.83 1505.22 423.66C1504.61 423.49 1504.3 422.67 1504.53 421.82C1504.76 420.97 1505.45 420.42 1506.06 420.59C1506.68 420.75 1506.99 421.58 1506.76 422.43Z" />
						</g>
						<g id="&lt;Group&gt;">
							<g id="&lt;Group&gt;">
								<path id="&lt;Path&gt;" class="shp13" d="M1491.53 416.61C1491.45 416.59 1491.37 416.53 1491.33 416.42C1491.27 416.25 1491.33 416.02 1491.48 415.93C1491.56 415.87 1493.45 414.29 1495.23 416.35C1495.34 416.48 1495.35 416.71 1495.24 416.87C1495.13 417.02 1494.97 417.01 1494.83 416.92C1493.47 416.02 1491.78 416.52 1491.71 416.56C1491.65 416.6 1491.59 416.62 1491.53 416.61Z" />
							</g>
						</g>
						<g id="&lt;Group&gt;">
							<path id="&lt;Path&gt;" class="shp13" d="M1494.89 420.38C1495 421.25 1494.58 422.03 1493.94 422.11C1493.31 422.18 1492.71 421.54 1492.6 420.67C1492.49 419.8 1492.91 419.03 1493.55 418.95C1494.18 418.87 1494.78 419.51 1494.89 420.38Z" />
						</g>
						<g id="&lt;Group&gt;">
							<path id="&lt;Path&gt;" class="shp4" d="M1536.24 415.29C1532.19 424.03 1527.3 428.72 1521.55 429.36C1526.2 422.7 1523.62 417.34 1513.84 413.28C1522.82 411.87 1530.29 412.54 1536.24 415.29Z" />
						</g>
						<g id="&lt;Group&gt;">
							<path id="&lt;Path&gt;" class="shp6" d="M1524.1 422.53C1522.25 423.7 1519.91 423.32 1518.86 421.67C1517.82 420.02 1518.46 417.74 1520.3 416.57C1522.15 415.39 1524.49 415.78 1525.54 417.42C1526.58 419.07 1525.94 421.36 1524.1 422.53Z" />
						</g>
						<g id="&lt;Group&gt;">
							<path id="&lt;Path&gt;" class="shp4" d="M1513.84 413.28C1514.62 420.62 1514.27 424.98 1512.77 426.37C1510.53 428.45 1495.75 429.34 1488.85 426.67C1488.73 433.74 1493.71 439.98 1500.68 441.15C1502.99 441.53 1505.37 441.54 1507.74 441.12C1512.57 440.28 1517.27 438.28 1519.26 433.8C1519.66 432.89 1519.28 429.64 1518.1 424.05C1517.66 420.77 1518.39 418.27 1520.3 416.57C1518.1 414.58 1515.94 413.49 1513.84 413.28Z" />
						</g>
						<g id="&lt;Group&gt;">
							<path id="&lt;Path&gt;" class="shp1" d="M1492.49 430.64C1496.27 431.66 1500.22 431.98 1504.35 431.58C1503.74 435.4 1501.35 436.93 1497.17 436.17C1494.75 435.72 1493.18 433.88 1492.49 430.64Z" />
						</g>
						<g id="&lt;Group&gt;">
							<path id="&lt;Path&gt;" class="shp4" d="M1491 388.19C1490.95 388.19 1490.9 388.19 1490.85 388.18L1490.86 387.69C1493.29 387.77 1493.47 385.85 1493.48 385.77L1493.97 385.81C1493.97 385.83 1493.72 388.19 1491 388.19Z" />
						</g>
						<g id="&lt;Group&gt;">
							<path id="&lt;Path&gt;" class="shp1" d="M1495.92 404.05C1495.89 404.04 1493.06 403.21 1490.22 401.67C1486.42 399.63 1484.31 397.26 1484.12 394.83C1483.98 393.13 1484.28 392 1485.03 391.35C1486.22 390.33 1488.28 390.81 1490.1 391.23C1490.37 391.29 1490.63 391.36 1490.88 391.41L1490.83 391.65C1490.57 391.6 1490.31 391.54 1490.04 391.47C1488.28 391.06 1486.28 390.6 1485.19 391.54C1484.51 392.13 1484.24 393.2 1484.37 394.81C1484.82 400.5 1495.88 403.78 1495.99 403.81L1495.92 404.05Z" />
						</g>
						<g id="&lt;Group&gt;">
							<path id="&lt;Path&gt;" class="shp1" d="M1517.69 392.5C1513.68 392.5 1510.68 391.46 1508.74 390.46C1506.08 389.11 1504.8 387.58 1504.75 387.52L1504.94 387.36C1504.99 387.42 1510.2 393.49 1520.98 392.03L1521.01 392.27C1519.84 392.43 1518.73 392.5 1517.69 392.5Z" />
						</g>
					</g>
					<g id="&lt;Group&gt;">
						<path id="&lt;Compound Path&gt;" fill-rule="evenodd" class="shp16" d="M1600.41 557.35C1599.34 557.35 1598.27 556.84 1597.36 555.89C1596.36 554.83 1595.65 553.34 1595.38 551.67C1594.8 548.16 1596.36 544.96 1598.86 544.55C1600.12 544.34 1601.39 544.84 1602.46 545.96C1603.47 547.02 1604.17 548.52 1604.45 550.18L1604.45 550.18C1604.72 551.84 1604.53 553.49 1603.92 554.81C1603.27 556.21 1602.22 557.1 1600.96 557.3C1600.78 557.33 1600.59 557.35 1600.41 557.35ZM1599.41 545.72C1599.29 545.72 1599.17 545.73 1599.06 545.74C1597.25 546.04 1596.11 548.67 1596.58 551.48C1596.81 552.9 1597.4 554.17 1598.24 555.05C1599.02 555.87 1599.92 556.25 1600.77 556.11C1601.61 555.97 1602.34 555.32 1602.82 554.3C1603.33 553.19 1603.48 551.8 1603.25 550.38L1603.25 550.38C1603.01 548.95 1602.42 547.68 1601.58 546.8C1600.91 546.09 1600.15 545.72 1599.41 545.72Z" />
					</g>
					<g id="&lt;Group&gt;">
						<path id="&lt;Path&gt;" class="shp6" d="M1594.65 624.69C1592.3 629.2 1589.63 639.23 1587.36 643.79C1586.37 645.77 1583.51 652.67 1585.32 653.99C1586.89 655.14 1591.72 650.85 1593.77 648.51C1595.79 663.25 1605.11 684.01 1603.07 652.87C1603.08 652.87 1603.1 652.87 1603.12 652.87C1603.61 656.01 1606.33 673.46 1610.12 671.26C1613.47 669.32 1612.02 656.76 1611.27 651.59C1611.32 651.58 1611.36 651.57 1611.41 651.56C1612.61 656.76 1615.83 669.23 1618.41 666.31C1620.56 663.87 1621.22 658.04 1620.37 648.84C1621.7 660.58 1623.78 665.2 1626.61 662.71C1629 660.6 1626.84 650.61 1625.41 644.41C1625.41 644.41 1625.41 644.41 1625.41 644.41C1625.11 643.11 1624.84 641.97 1624.65 641.11C1624.49 640.4 1624.28 639.78 1624.02 639.24C1622 632.42 1619.79 626.98 1617.39 622.91C1615.39 617.64 1611.42 615.41 1605.47 616.2C1599.79 616.96 1595.68 622.73 1594.65 624.69Z" />
					</g>
				</g>
				<g id="&lt;Group&gt;">
					<path id="&lt;Path&gt;" class="shp4" d="M1451.43 494.35L1450.65 494.13C1452.71 486.66 1459.63 477.33 1459.7 477.24L1460.35 477.72C1460.28 477.81 1453.45 487.02 1451.43 494.35Z" />
				</g>
				<g id="&lt;Group&gt;">
					<path id="&lt;Path&gt;" class="shp11" d="M1515.88 714C1515.82 713.66 1510.36 679.76 1506.62 667.69C1502.93 655.8 1487.02 645.77 1486.86 645.67L1487.54 644.58C1487.58 644.6 1491.69 647.18 1496.21 651.23C1502.32 656.7 1506.23 662.11 1507.84 667.31C1511.61 679.47 1517.09 713.45 1517.14 713.79L1515.88 714Z" />
				</g>
				<g id="&lt;Group&gt;">
					<path id="&lt;Path&gt;" class="shp6" d="M1361.32 503.39C1359.29 499.09 1353.33 491.45 1351.22 487.19C1350.3 485.34 1346.78 479.32 1344.78 479.92C1343.04 480.44 1343.51 486.46 1344.09 489.3C1331.99 482.49 1310.23 476 1335.6 493.76C1335.59 493.77 1335.59 493.79 1335.58 493.8C1332.97 492.39 1315.48 482.54 1314.98 486.61C1314.53 490.19 1327.66 498.23 1331.93 500.59C1331.91 500.63 1331.9 500.67 1331.88 500.71C1327.33 498.67 1314.28 491.94 1315 495.5C1315.61 498.48 1320.22 502.95 1328.84 508.91C1319.36 503.28 1314.75 502.22 1315.01 505.73C1315.23 508.7 1323.88 512.73 1329.31 515.16C1329.31 515.16 1329.31 515.16 1329.31 515.16C1330.44 515.67 1331.44 516.11 1332.19 516.45C1332.81 516.74 1333.38 516.93 1333.93 517.04C1340.15 519.38 1345.44 520.81 1349.83 521.31C1354.87 522.79 1358.77 521.1 1361.54 516.23C1364.17 511.57 1362.2 505.26 1361.32 503.39Z" />
				</g>
			</g>
			<g id="&lt;Group&gt;">
				<g id="&lt;Group&gt;">
					<path id="&lt;Path&gt;" class="shp4" d="M440.15 956.79C440.32 963.53 442.68 967.85 447.24 969.75C454.08 972.61 473.91 975.18 466.5 981.68C462.25 985.41 442.22 983 436.57 983C430.91 983 425.6 985.46 421.4 981.68C418.32 978.9 418.32 970.61 421.4 956.79C424.65 958.49 427.74 959.3 430.67 959.22C434.88 959.11 438.04 958.3 440.15 956.79Z" />
				</g>
				<g id="&lt;Group&gt;">
					<path id="&lt;Path&gt;" class="shp15" d="M490.99 679.64C490.67 710.7 489.26 753.64 486.76 808.45C483.82 872.91 484.42 932.64 478.78 960.95C476.76 971.08 402.02 965.92 402.82 954.77L420.51 755.64L423.89 692.59L490.99 679.64Z" />
				</g>
				<g id="&lt;Group&gt;">
					<path id="&lt;Path&gt;" class="shp7" d="M378.99 577.39C385.67 558.59 400.91 549.62 424.7 550.48C460.39 551.76 488.96 598.7 495.64 699.5C455.81 691.16 413.08 696.95 367.44 716.88C364.69 651.28 368.54 604.78 378.99 577.39Z" />
				</g>
				<g id="&lt;Group&gt;">
					<path id="&lt;Path&gt;" class="shp7" d="M353.92 575.69L379.21 591.87C422.54 596.21 449.96 597.33 461.46 595.25C472.96 593.16 475.76 589.08 469.85 583C466.61 565.61 454.57 555.05 433.75 551.32C430.82 550.79 427.86 550.71 424.7 550.48C419.41 550.11 414.11 550.27 408.91 550.83C388.34 553.05 370.01 561.33 353.92 575.69Z" />
				</g>
				<g id="&lt;Group&gt;">
					<path id="&lt;Path&gt;" class="shp4" d="M353.56 576.25C352.69 578.79 359.3 583.56 368.33 586.89C377.37 590.22 385.4 590.86 386.28 588.32C387.16 585.77 380.55 581.01 371.51 577.67C362.48 574.34 354.44 573.7 353.56 576.25Z" />
				</g>
				<g id="&lt;Group&gt;">
					<path id="&lt;Path&gt;" class="shp4" d="M361.59 956.79C361.75 963.53 364.12 967.85 368.68 969.75C375.52 972.6 395.34 975.18 387.94 981.68C383.69 985.41 363.66 983 358 983C352.35 983 347.04 985.46 342.84 981.68C339.75 978.9 339.75 970.61 342.84 956.79C346.09 958.48 349.18 959.29 352.1 959.22C356.32 959.11 359.48 958.3 361.59 956.79Z" />
				</g>
				<g id="&lt;Group&gt;">
					<path id="&lt;Path&gt;" class="shp4" d="M367.44 716.88C368.06 722.03 397.18 721.41 432.84 716.89C468.5 712.38 496.26 704.65 495.64 699.5C495.01 694.35 466.25 693.73 430.59 698.24C394.93 702.75 366.81 711.73 367.44 716.88Z" />
				</g>
				<g id="&lt;Group&gt;">
					<path id="&lt;Path&gt;" class="shp15" d="M450.05 709.87L383.68 960.9C380.5 971.13 317.53 969.76 319.5 958.89L371 721.46C371.6 718.73 373.62 716.56 376.26 715.8C390.53 711.68 451.46 699.75 450.05 709.87Z" />
				</g>
				<g id="&lt;Group&gt;">
					<path id="&lt;Path&gt;" class="shp11" d="M412.15 855.73L410.9 855.44L431.17 769.05C434.97 757.51 442.74 747.91 453.09 741.99L453.72 743.1C443.66 748.87 436.08 758.21 432.4 769.4L412.15 855.73Z" />
				</g>
				<g id="&lt;Group&gt;">
					<path id="&lt;Path&gt;" class="shp15" d="M396.11 711.3C443.55 702.23 474.97 699.84 490.35 704.12L479.29 720.51L438.15 722.84L396.11 711.3Z" />
				</g>
				<g id="&lt;Group&gt;">
					<path id="&lt;Path&gt;" class="shp4" d="M436.46 552.64C431.06 550.48 427.94 547.9 427.09 544.89C425.82 540.38 422.81 541.76 421.07 540.61C419.92 539.84 420.96 535.36 424.2 527.19L440.97 521.05L439.24 542.57L436.46 552.64Z" />
				</g>
				<g id="&lt;Group&gt;">
					<path id="&lt;Path&gt;" class="shp6" d="M401.33 552.02C404.69 551.26 408.05 549.18 409.49 545.85L413.93 535.54L415.23 532.52L422.86 514.8L421.53 533.17L420.74 544.19L420.52 547.3C420.33 549.87 421.79 550 424.33 550.46C426.51 557.07 425.14 560.38 420.21 560.38C413.67 560.38 407.38 557.6 401.33 552.02Z" />
				</g>
				<g id="&lt;Group&gt;">
					<path id="&lt;Path&gt;" class="shp17" d="M413.91 535.23C413.91 535.33 413.92 535.44 413.93 535.54C414.22 539.48 416.48 542.38 420.7 544.22L420.74 544.19L421.53 533.17C419.6 532.46 416.84 531.73 415.23 532.52C414.38 532.94 413.85 533.77 413.91 535.23Z" />
				</g>
				<g id="&lt;Group&gt;">
					<path id="&lt;Path&gt;" class="shp6" d="M440.95 517.74C440.95 505.98 433.22 496.45 423.69 496.45C414.16 496.45 406.43 505.98 406.43 517.74C406.43 529.5 414.16 539.03 423.69 539.03C433.22 539.03 440.95 529.5 440.95 517.74Z" />
				</g>
				<g id="&lt;Group&gt;">
					<path id="&lt;Path&gt;" class="shp1" d="M432.98 531.51C429.06 531.6 425.13 530.96 421.2 529.58C420.87 533.45 422.83 535.52 427.09 535.78C429.57 535.93 431.53 534.51 432.98 531.51Z" />
				</g>
				<g id="&lt;Group&gt;">
					<g id="&lt;Group&gt;">
						<path id="&lt;Path&gt;" class="shp13" d="M425.36 517.94C425.48 517.91 425.58 517.83 425.62 517.71C425.7 517.51 425.61 517.28 425.4 517.2C425.29 517.15 422.64 515.79 420.32 518.33C420.18 518.49 420.18 518.74 420.34 518.89C420.49 519.04 420.71 518.99 420.89 518.87C422.7 517.66 425.01 517.89 425.11 517.93C425.19 517.96 425.28 517.96 425.36 517.94Z" />
					</g>
				</g>
				<g id="&lt;Group&gt;">
					<path id="&lt;Path&gt;" class="shp13" d="M421.42 522.06C421.39 522.99 421.92 523.77 422.6 523.79C423.28 523.81 423.86 523.07 423.88 522.13C423.91 521.2 423.39 520.42 422.71 520.4C422.03 520.38 421.45 521.12 421.42 522.06Z" />
				</g>
				<g id="&lt;Group&gt;">
					<path id="&lt;Path&gt;" class="shp13" d="M432.59 522.8C432.5 523.73 432.98 524.54 433.66 524.6C434.33 524.67 434.95 523.96 435.04 523.03C435.13 522.1 434.66 521.29 433.98 521.22C433.3 521.16 432.68 521.86 432.59 522.8Z" />
				</g>
				<g id="&lt;Group&gt;">
					<path id="&lt;Path&gt;" class="shp4" d="M415.32 504.1C428.52 507.26 437.88 519.08 438.3 532.65C438.33 533.44 426.13 541.48 426.87 544.22C428.62 550.66 437.1 556.45 440.11 556.45C444.66 556.45 452.27 541.02 449.82 520.94C447.36 500.86 439.57 486.11 421.13 485.5C408.84 485.09 403.51 488.98 405.15 497.17C407.31 500.69 410.7 503 415.32 504.1Z" />
				</g>
				<g id="&lt;Group&gt;">
					<path id="&lt;Path&gt;" class="shp4" d="M417.9 504.14C417.7 504.28 417.42 504.47 417.09 504.73C415.13 506.25 410.31 510.58 409.45 517.05C408.38 525.19 416.21 530.26 414.06 536.56C411.91 542.86 406.23 535.79 401.62 536.87C397.01 537.95 393.63 535.79 393.32 526.58C393.01 517.36 395.16 495.84 406.07 495.84L417.9 504.14Z" />
				</g>
				<g id="&lt;Group&gt;">
					<path id="&lt;Path&gt;" class="shp6" d="M406.76 520.95C408.71 522.81 411.45 523.01 412.86 521.38C414.28 519.74 413.84 516.91 411.89 515.04C409.94 513.18 407.2 512.99 405.79 514.62C404.37 516.25 404.8 519.08 406.76 520.95Z" />
				</g>
				<g id="&lt;Group&gt;">
					<path id="&lt;Path&gt;" class="shp4" d="M439.24 542.7C439.24 542.7 439.24 542.7 439.24 542.7C439.16 542.7 439.11 542.64 439.11 542.57C439.31 533.13 437.48 527.06 437.46 527C437.44 526.93 437.48 526.86 437.55 526.84C437.62 526.82 437.69 526.86 437.71 526.92C437.73 526.98 439.57 533.1 439.37 542.58C439.36 542.65 439.31 542.7 439.24 542.7Z" />
				</g>
				<g id="&lt;Group&gt;">
					<g id="&lt;Group&gt;">
						<path id="&lt;Path&gt;" class="shp6" d="M415.58 664.32L415.89 645.84C415.93 643.32 413.98 641.2 411.47 641.02C398.66 640.11 389.69 636.13 384.78 629.19C377.96 619.54 378.68 604.56 380.58 594.17C381.55 588.85 379.8 585.29 373.37 581.89C369.69 579.86 365.58 578.46 361.03 577.69C358.3 577.22 355.6 578.32 354.89 581C353.79 585.19 352.36 591.71 351.68 599.38C350.07 617.6 353.58 633.45 361.85 645.21C371.99 659.65 388.34 667.64 410.5 669C413.22 669.16 415.54 667.05 415.58 664.32Z" />
					</g>
				</g>
				<g id="&lt;Group&gt;" style="opacity: 0.502">
					<path id="&lt;Compound Path&gt;" fill-rule="evenodd" class="shp16" d="M368.48 640.4C367.99 640.4 367.47 640.32 366.94 640.15C365.51 639.72 364.13 638.74 363.05 637.4C360.77 634.57 360.55 630.94 362.57 629.32C363.58 628.51 364.96 628.31 366.47 628.77C367.9 629.2 369.28 630.18 370.36 631.52C372.64 634.36 372.86 637.98 370.84 639.6C370.19 640.13 369.38 640.4 368.48 640.4ZM364.94 629.77C364.32 629.77 363.77 629.94 363.34 630.29C361.86 631.48 362.16 634.33 364.02 636.63C364.94 637.77 366.11 638.61 367.3 638.97C368.4 639.3 369.38 639.19 370.07 638.64C371.55 637.44 371.25 634.6 369.39 632.3C368.47 631.15 367.3 630.32 366.11 629.96C365.7 629.83 365.31 629.77 364.94 629.77Z" />
				</g>
				<g id="&lt;Group&gt;">
					<path id="&lt;Path&gt;" class="shp4" d="M476.74 687.58L429.12 687.58C419.98 687.58 413.25 679.03 415.38 670.15L434.15 592.17C435.67 585.82 441.35 581.34 447.88 581.34L495.5 581.34C504.64 581.34 511.38 589.89 509.24 598.78L490.48 676.76C488.95 683.11 483.27 687.58 476.74 687.58Z" />
				</g>
				<g id="&lt;Group&gt;">
					<g id="&lt;Group&gt;">
						<g id="&lt;Group&gt;">
							<path id="&lt;Path&gt;" class="shp6" d="M406.76 639.85C409.76 630.77 413.83 625.12 418.96 622.9C426.67 619.57 439.02 621.13 434.69 624.21C431.8 626.27 428.14 628.1 423.73 629.7C433.33 626.72 437.99 626.5 437.71 629.05C437.44 631.59 433.11 634.12 424.74 636.64C436.45 634 441.78 633.84 440.74 636.16C439.7 638.49 434.73 640.62 425.82 642.56C436.81 640.54 441.67 640.86 440.4 643.53C438.5 647.54 426.76 645.95 426.35 649.77C425.94 653.59 423.01 668.63 412.25 668.78L406.76 639.85Z" />
						</g>
					</g>
					<g id="&lt;Group&gt;">
						<path id="&lt;Path&gt;" class="shp8" d="M418.59 632.86L418.03 632.6C419.22 630.1 423.5 629.42 423.68 629.39L423.77 630.01C423.73 630.01 419.64 630.67 418.59 632.86Z" />
					</g>
					<g id="&lt;Group&gt;">
						<path id="&lt;Path&gt;" class="shp8" d="M418.52 640.44L418.03 640.07C420.36 636.95 424.52 636.35 424.7 636.33L424.78 636.94C424.74 636.95 420.7 637.53 418.52 640.44Z" />
					</g>
					<g id="&lt;Group&gt;">
						<path id="&lt;Path&gt;" class="shp8" d="M420.04 646.07L419.46 645.85C420.5 643.08 425.56 642.29 425.78 642.25L425.87 642.87C425.82 642.87 420.95 643.64 420.04 646.07Z" />
					</g>
				</g>
				<g id="&lt;Group&gt;">
					<g id="&lt;Group&gt;">
						<path id="&lt;Path&gt;" class="shp6" d="M512.76 613.21C514.81 608.41 513.64 605.08 509.24 603.24C500.84 599.72 486.99 603.38 492.28 605.69C495.41 607.05 499.43 608.17 504.34 609.04C491.83 607 485.8 607.35 486.27 610.09C486.73 612.84 492.36 615.01 503.14 616.62C490.77 615.78 485.23 616.59 486.5 619.04C487.78 621.49 493.31 623.47 503.09 624.99C491.05 623.52 485.8 624.19 487.35 627C489.68 631.22 499.25 630.46 503.38 631.07C507.28 631.64 508.91 629.32 509.2 625.51C510.85 623.1 511.53 621.05 511.24 619.36C511.07 618.39 512.09 617.6 512.27 616.93C512.5 616.08 512.66 614.84 512.76 613.21Z" />
					</g>
				</g>
				<g id="&lt;Group&gt;">
					<path id="&lt;Path&gt;" class="shp4" d="M459.93 578.65C458.01 582.87 458.01 585.54 459.93 586.66C462.81 588.34 485.81 587.14 487.01 586.66C488.21 586.18 488.45 579.75 487.01 578.65C485.57 577.55 460.57 576.93 459.93 578.65Z" />
				</g>
			</g>
			<g id="&lt;Group&gt;">
				<g id="&lt;Group&gt;">
					<path id="&lt;Path&gt;" class="shp4" d="M1183.59 1045.64C1183.76 1052.28 1186.11 1056.53 1190.63 1058.4C1197.42 1061.21 1217.08 1063.75 1209.73 1070.15C1205.52 1073.82 1185.65 1071.45 1180.04 1071.45C1174.43 1071.44 1169.16 1073.87 1164.99 1070.14C1161.93 1067.41 1161.93 1059.24 1164.99 1045.64C1168.22 1047.31 1171.28 1048.11 1174.19 1048.03C1178.37 1047.92 1181.5 1047.13 1183.59 1045.64Z" />
				</g>
				<g id="&lt;Group&gt;">
					<g id="&lt;Group&gt;">
						<path id="&lt;Path&gt;" class="shp6" d="M1268.96 676.6C1278.21 677.38 1284.64 675.98 1288.26 672.4C1293.69 667.03 1296.54 656.1 1292.46 658.72C1289.74 660.47 1286.95 662.93 1284.1 666.12C1289.87 659.03 1291.63 655.17 1289.38 654.55C1287.12 653.93 1283.51 656.73 1278.55 662.94C1284.75 653.96 1286.68 649.52 1284.36 649.62C1282.04 649.72 1278.55 653.19 1273.89 660.04C1279.32 651.46 1280.68 647.26 1277.99 647.44C1273.95 647.7 1271.34 658.11 1267.95 657.18C1264.57 656.25 1253.55 655.81 1251.43 662.46L1268.96 676.6Z" />
					</g>
				</g>
				<g id="&lt;Group&gt;">
					<path id="&lt;Path&gt;" class="shp15" d="M1225.46 794.29C1229.82 808.1 1227.53 841.65 1218.6 894.94C1208.92 952.65 1200.8 1010.21 1195.19 1038.09C1193.19 1048.06 1184.74 1055.35 1174.72 1055.75L1169.34 1055.96C1158.51 1056.4 1149.72 1047.16 1150.51 1036.19L1164.11 847.59L1167.46 785.52L1225.46 794.29Z" />
				</g>
				<g id="&lt;Group&gt;">
					<path id="&lt;Path&gt;" class="shp4" d="M1115.39 802.58C1117.09 809.8 1144.08 817.39 1176.39 809.72C1208.7 802.06 1233.91 793.92 1232.22 786.69C1230.53 779.46 1202.57 775.89 1170.26 783.55C1137.95 791.21 1113.7 795.35 1115.39 802.58Z" />
				</g>
				<g id="&lt;Group&gt;">
					<path id="&lt;Path&gt;" class="shp4" d="M1105.65 1045.64C1105.81 1052.28 1108.16 1056.53 1112.69 1058.4C1119.47 1061.21 1139.14 1063.74 1131.79 1070.14C1127.57 1073.82 1107.7 1071.44 1102.09 1071.44C1096.48 1071.44 1091.21 1073.87 1087.04 1070.14C1083.99 1067.41 1083.99 1059.24 1087.05 1045.64C1090.27 1047.31 1093.34 1048.11 1096.24 1048.03C1100.42 1047.92 1103.56 1047.13 1105.65 1045.64Z" />
				</g>
				<g id="&lt;Group&gt;">
					<path id="&lt;Path&gt;" class="shp15" d="M1225.46 794.29L1164.95 904.85L1117.89 1043.31C1114.73 1053.39 1105.58 1060.29 1095.17 1060.47L1090.63 1060.55C1079.91 1060.73 1071.72 1050.89 1073.67 1040.19L1119.62 807.22C1120.22 804.53 1130.53 800.99 1133.17 800.34C1158.65 794.06 1226.86 784.33 1225.46 794.29Z" />
				</g>
				<g id="&lt;Group&gt;">
					<path id="&lt;Path&gt;" class="shp11" d="M1159.25 923.57L1158.03 923.24L1174.69 860.78C1175.3 858.94 1175.88 856.99 1176.5 854.92C1179.61 844.49 1183.49 831.5 1193.06 827.47L1193.55 828.64C1184.53 832.44 1180.75 845.1 1177.71 855.29C1177.09 857.36 1176.51 859.32 1175.9 861.14L1159.25 923.57Z" />
				</g>
				<g id="&lt;Group&gt;">
					<path id="&lt;Path&gt;" class="shp4" d="M1185.64 590.58C1185.96 579.91 1181.36 574.51 1171.85 574.37C1157.59 574.15 1161.69 584.49 1159.35 587.41C1157.02 590.34 1164.19 597.78 1171.09 598.26C1175.68 598.58 1180.53 596.02 1185.64 590.58Z" />
				</g>
				<g id="&lt;Group&gt;">
					<path id="&lt;Path&gt;" class="shp7" d="M1224.24 701.52C1229.54 699.11 1235.47 703.22 1242.03 713.86C1242.17 713.97 1227.68 647.43 1181.71 653.77C1176.8 654.44 1154.9 658.78 1150.38 660.59C1116.2 674.31 1119.76 682.34 1119.19 717.13C1118.65 750.53 1115.27 799.86 1115.38 801.23C1156.9 782.65 1195.85 777.8 1232.22 786.69C1232.68 737.28 1225.23 703.99 1224.24 701.52Z" />
				</g>
				<g id="&lt;Group&gt;">
					<path id="&lt;Path&gt;" class="shp6" d="M1155.68 657.81C1161.14 664.1 1167.27 666.13 1175.26 666.13C1183.32 666.13 1185.47 662.01 1181.71 653.77C1178.74 653.7 1177.12 652.2 1176.87 649.27L1176.58 645.65L1176.43 643.86L1175.95 638.14L1175.53 633.01L1173.78 611.94L1168.2 633.39L1167.25 637.03L1163.99 649.61C1162.94 653.62 1159.78 656.73 1155.74 657.79C1155.72 657.8 1155.7 657.81 1155.68 657.81Z" />
				</g>
				<g id="&lt;Group&gt;">
					<path id="&lt;Path&gt;" class="shp4" d="M1167.25 637.03C1169.63 641.18 1172.69 643.46 1176.43 643.86L1175.95 638.14C1173.62 637.68 1170.72 637.31 1167.25 637.03Z" />
				</g>
				<g id="&lt;Group&gt;">
					<g id="&lt;Group&gt;">
						<path id="&lt;Path&gt;" class="shp4" d="M1146.8 616.66C1148.06 618.67 1148.82 622.12 1149.08 627.03C1149.65 637.79 1162.36 638.07 1164.31 634.29C1164.47 633.98 1162.49 628.3 1158.38 617.27L1154.04 616.36L1146.8 616.66Z" />
					</g>
				</g>
				<g id="&lt;Group&gt;">
					<path id="&lt;Path&gt;" class="shp6" d="M1191.58 608.75C1187.23 595.97 1175.24 588.47 1164.79 592C1154.35 595.52 1149.41 608.75 1153.76 621.53C1158.11 634.31 1170.1 641.82 1180.55 638.29C1191 634.76 1195.94 621.54 1191.58 608.75Z" />
				</g>
				<g id="&lt;Group&gt;">
					<path id="&lt;Path&gt;" class="shp4" d="M1174.11 594.84C1173.83 595.73 1180.86 606.63 1159.59 616.99C1138.32 627.35 1142.57 596.07 1158.77 589.92C1182.17 581.04 1190.99 595.68 1190.65 602.14C1190.43 606.44 1184.91 604.01 1174.11 594.84Z" />
				</g>
				<g id="&lt;Group&gt;">
					<path id="&lt;Path&gt;" class="shp4" d="M1160.75 612.37C1156.85 620.75 1157.05 627.83 1161.36 633.6C1156.55 630.97 1153.86 628.97 1153.3 627.57C1152.74 626.17 1152.05 622.75 1151.24 617.3L1160.75 612.37Z" />
				</g>
				<g id="&lt;Group&gt;">
					<path id="&lt;Path&gt;" class="shp6" d="M1157.48 624.17C1160.31 625.47 1163.38 624.67 1164.32 622.37C1165.27 620.07 1163.75 617.15 1160.91 615.85C1158.08 614.54 1155.01 615.35 1154.07 617.64C1153.12 619.94 1154.64 622.86 1157.48 624.17Z" />
				</g>
				<g id="&lt;Group&gt;">
					<g id="&lt;Group&gt;">
						<path id="&lt;Path&gt;" class="shp13" d="M1174.58 614.75C1174.69 614.67 1174.77 614.54 1174.78 614.4C1174.79 614.15 1174.6 613.94 1174.35 613.92C1174.2 613.92 1170.8 613.42 1169.2 617.04C1169.1 617.26 1169.19 617.53 1169.42 617.63C1169.65 617.74 1169.87 617.61 1170.02 617.41C1171.55 615.43 1174.18 614.82 1174.3 614.82C1174.4 614.83 1174.5 614.8 1174.58 614.75Z" />
					</g>
				</g>
				<g id="&lt;Group&gt;">
					<path id="&lt;Path&gt;" class="shp13" d="M1172.77 620.59C1173.08 621.62 1173.95 622.26 1174.7 622.04C1175.45 621.81 1175.81 620.79 1175.49 619.76C1175.18 618.73 1174.32 618.08 1173.56 618.31C1172.81 618.54 1172.45 619.56 1172.77 620.59Z" />
				</g>
				<g id="&lt;Group&gt;">
					<g id="&lt;Group&gt;">
						<path id="&lt;Path&gt;" class="shp13" d="M1190.69 611.78C1190.82 611.76 1190.95 611.67 1191.01 611.54C1191.12 611.31 1191.02 611.04 1190.8 610.94C1190.66 610.87 1187.72 609.13 1184.85 611.87C1184.66 612.04 1184.65 612.32 1184.82 612.51C1184.99 612.69 1185.24 612.66 1185.46 612.53C1187.63 611.27 1190.29 611.7 1190.4 611.75C1190.5 611.79 1190.6 611.8 1190.69 611.78Z" />
					</g>
				</g>
				<g id="&lt;Group&gt;">
					<path id="&lt;Path&gt;" class="shp13" d="M1186.78 616.51C1186.67 617.58 1187.22 618.5 1188.01 618.58C1188.79 618.65 1189.51 617.84 1189.61 616.77C1189.72 615.7 1189.17 614.77 1188.39 614.7C1187.6 614.63 1186.88 615.44 1186.78 616.51Z" />
				</g>
				<g id="&lt;Group&gt;" style="opacity: 0.302">
					<path id="&lt;Path&gt;" class="shp1" d="M1163.61 617.35C1163.75 623.43 1167.43 629.06 1171.82 629.93C1176.21 630.8 1179.65 626.58 1179.51 620.51C1179.37 614.43 1175.69 608.8 1171.3 607.93C1166.91 607.06 1163.47 611.28 1163.61 617.35Z" />
				</g>
				<g id="&lt;Group&gt;" style="opacity: 0.302">
					<path id="&lt;Path&gt;" class="shp1" d="M1183.64 614.39C1184.45 620.3 1188.3 625.6 1192.23 626.24C1196.16 626.88 1198.68 622.6 1197.87 616.69C1197.06 610.78 1193.22 605.48 1189.29 604.84C1185.36 604.21 1182.83 608.48 1183.64 614.39Z" />
				</g>
				<g id="&lt;Group&gt;">
					<g id="&lt;Group&gt;">
						<path id="&lt;Compound Path&gt;" fill-rule="evenodd" class="shp18" d="M1163.39 619.77C1163.23 618.99 1163.11 618.19 1163.06 617.39C1163.04 617.11 1163.02 616.83 1163.02 616.55C1163.01 616.08 1163.02 615.62 1163.05 615.16C1163.27 611.99 1164.45 609.31 1166.39 607.69C1167.92 606.41 1169.75 605.93 1171.7 606.3C1172.1 606.38 1172.5 606.49 1172.88 606.63C1175.99 607.79 1178.64 611.04 1179.89 615.02C1180.04 615.47 1180.16 615.92 1180.26 616.39C1180.52 617.48 1180.65 618.61 1180.68 619.76C1180.69 620.86 1180.6 621.92 1180.4 622.91C1179.94 625.31 1178.87 627.31 1177.31 628.62C1176.67 629.14 1175.98 629.54 1175.25 629.79C1175.03 629.87 1174.81 629.93 1174.59 629.98C1173.76 630.17 1172.89 630.18 1171.99 630.01C1171.05 629.83 1170.15 629.47 1169.31 628.94C1167.17 627.62 1165.36 625.3 1164.25 622.52C1164.12 622.24 1164.02 621.95 1163.91 621.65C1163.71 621.04 1163.53 620.41 1163.39 619.77ZM1178.45 626.08C1179 625.13 1179.42 624 1179.66 622.77C1179.86 621.82 1179.94 620.81 1179.92 619.77C1179.9 618.73 1179.78 617.71 1179.57 616.71C1179.47 616.24 1179.35 615.78 1179.2 615.32C1178.01 611.44 1175.44 608.28 1172.44 607.28C1172.15 607.17 1171.86 607.1 1171.56 607.04C1170.77 606.88 1170 606.89 1169.27 607.06C1168.41 607.24 1167.6 607.65 1166.87 608.26C1165.87 609.1 1165.07 610.29 1164.54 611.71C1164.33 612.28 1164.17 612.88 1164.04 613.52C1164.04 613.56 1164.03 613.59 1164.02 613.63C1164.01 613.65 1164.01 613.67 1164.01 613.68C1163.94 614.01 1163.89 614.34 1163.86 614.68C1163.78 615.28 1163.76 615.91 1163.77 616.54C1163.78 617.23 1163.84 617.91 1163.94 618.58C1164.01 619.04 1164.09 619.48 1164.2 619.92C1164.31 620.38 1164.44 620.84 1164.58 621.28L1164.59 621.29C1165.54 624.21 1167.27 626.67 1169.38 628.09C1170.24 628.69 1171.17 629.09 1172.14 629.27C1173.16 629.46 1174.14 629.39 1175.06 629.07C1175.69 628.85 1176.28 628.51 1176.82 628.05C1177.44 627.53 1177.98 626.88 1178.42 626.12C1178.43 626.11 1178.43 626.1 1178.45 626.08Z" />
					</g>
				</g>
				<g id="&lt;Group&gt;">
					<g id="&lt;Group&gt;">
						<path id="&lt;Compound Path&gt;" fill-rule="evenodd" class="shp18" d="M1183.43 615.84C1183.34 615.38 1183.28 614.9 1183.24 614.44C1183.22 614.18 1183.2 613.93 1183.19 613.67C1183 609.76 1184.13 606.36 1186.18 604.6C1186.67 604.2 1187.19 603.88 1187.74 603.67C1188.19 603.5 1188.65 603.4 1189.13 603.37C1189.48 603.35 1189.82 603.37 1190.18 603.43L1190.19 603.43C1190.27 603.44 1190.37 603.46 1190.46 603.47C1194.66 604.32 1198.33 610.19 1198.63 616.57C1198.81 620.49 1197.69 623.89 1195.63 625.65C1195.11 626.1 1194.54 626.43 1193.93 626.63C1193.22 626.87 1192.46 626.94 1191.68 626.83C1191.67 626.82 1191.66 626.83 1191.65 626.82C1191.55 626.81 1191.46 626.8 1191.36 626.78C1189.83 626.47 1188.38 625.51 1187.14 624.1L1187.14 624.09L1187.13 624.09C1185.9 622.69 1184.86 620.86 1184.16 618.79C1183.84 617.85 1183.59 616.86 1183.43 615.84ZM1184.43 617.74C1184.54 618.05 1184.65 618.35 1184.77 618.65C1184.89 618.95 1185.03 619.24 1185.16 619.53C1185.25 619.72 1185.34 619.92 1185.44 620.11C1185.45 620.13 1185.47 620.16 1185.48 620.18C1185.56 620.34 1185.64 620.5 1185.73 620.65C1185.73 620.66 1185.73 620.66 1185.73 620.66C1185.04 619.25 1184.51 617.66 1184.21 615.98C1184.15 615.96 1184.06 615.94 1183.92 615.91C1183.99 616.23 1184.07 616.53 1184.16 616.84C1184.24 617.15 1184.34 617.45 1184.43 617.74ZM1185.73 620.66C1185.74 620.67 1185.74 620.67 1185.74 620.68C1185.74 620.67 1185.74 620.67 1185.73 620.66Z" />
					</g>
				</g>
				<g id="&lt;Group&gt;">
					<g id="&lt;Group&gt;">
						<path id="&lt;Path&gt;" class="shp4" d="M1184.72 615.99C1184.91 615.93 1185.08 615.77 1185.16 615.56C1185.28 615.2 1185.09 614.8 1184.72 614.67C1184.61 614.63 1181.81 613.7 1178.48 615.73C1178.15 615.94 1178.05 616.37 1178.25 616.7C1178.45 617.02 1178.89 617.13 1179.22 616.92C1181.98 615.23 1184.24 615.98 1184.26 615.99C1184.41 616.04 1184.57 616.04 1184.72 615.99Z" />
					</g>
				</g>
				<g id="&lt;Group&gt;">
					<path id="&lt;Path&gt;" class="shp4" d="M1154.98 595.9C1150.38 586.27 1143.81 583.54 1135.26 587.7C1122.44 593.94 1127.73 600.53 1130.08 604.94C1131.83 608.24 1139.14 611.98 1145.51 609.3C1149.76 607.51 1152.92 603.05 1154.98 595.9Z" />
				</g>
				<g id="&lt;Group&gt;">
					<g id="&lt;Group&gt;">
						<path id="&lt;Path&gt;" class="shp4" d="M1157.1 645.51C1157.02 645.52 1156.93 645.51 1156.85 645.48C1156.63 645.38 1156.53 645.13 1156.62 644.91C1156.71 644.71 1158.78 640.13 1163.74 637.04C1163.94 636.91 1164.21 636.97 1164.34 637.17C1164.47 637.38 1164.41 637.65 1164.2 637.77C1159.47 640.72 1157.44 645.21 1157.42 645.26C1157.36 645.39 1157.24 645.49 1157.1 645.51Z" />
					</g>
				</g>
				<g id="&lt;Group&gt;">
					<path id="&lt;Path&gt;" class="shp1" d="M1155.68 657.81L1147.5 659.39C1146.54 662.21 1147.39 664.06 1150.06 664.95C1154.06 666.29 1154.87 666.29 1156.15 669.36C1157.43 672.44 1162.42 672.57 1164.17 671.5C1165.92 670.43 1169 674.45 1171.84 674.45C1174.69 674.45 1176.36 669.45 1175.26 666.13C1168.14 664.92 1161.61 662.14 1155.68 657.81Z" />
				</g>
				<g id="&lt;Group&gt;">
					<path id="&lt;Path&gt;" class="shp1" d="M1181.71 653.77C1185.07 661.81 1182.91 665.93 1175.26 666.13C1179.28 670.13 1182.7 671.33 1185.51 669.72C1189.74 667.31 1185.69 665.17 1187.49 663.57C1189.29 661.96 1191.26 660.8 1189.47 658.93C1188.27 657.68 1188.05 655.82 1188.8 653.34C1186.89 651.52 1184.53 651.67 1181.71 653.77Z" />
				</g>
				<g id="&lt;Group&gt;">
					<path id="&lt;Path&gt;" class="shp4" d="M1185.73 683.74C1185.73 682.75 1186.54 681.95 1187.53 681.95C1188.53 681.95 1189.34 682.75 1189.34 683.74C1189.34 684.73 1188.53 685.54 1187.53 685.54C1186.54 685.54 1185.73 684.73 1185.73 683.74Z" />
				</g>
				<g id="&lt;Group&gt;">
					<path id="&lt;Path&gt;" class="shp4" d="M1193.31 741.29C1193.31 740.3 1194.12 739.5 1195.11 739.5C1196.11 739.5 1196.92 740.3 1196.92 741.29C1196.92 742.28 1196.11 743.09 1195.11 743.09C1194.12 743.09 1193.31 742.28 1193.31 741.29Z" />
				</g>
				<g id="&lt;Group&gt;">
					<path id="&lt;Path&gt;" class="shp4" d="M1193.31 715.22C1193.31 714.23 1194.12 713.43 1195.11 713.43C1196.11 713.43 1196.92 714.23 1196.92 715.22C1196.92 716.21 1196.11 717.01 1195.11 717.01C1194.12 717.01 1193.31 716.21 1193.31 715.22Z" />
				</g>
				<g id="&lt;Group&gt;">
					<g id="&lt;Group&gt;">
						<path id="&lt;Path&gt;" class="shp7" d="M1102.72 844.92L1102.36 827.29C1102.27 824.89 1100.43 822.82 1097.99 822.41L1083.92 820.08C1081.71 819.71 1079.51 820.77 1078.44 822.72L1069.49 840.99L1065.61 839.09L1074.63 820.71C1076.56 817.11 1080.59 815.15 1084.63 815.82L1098.7 818.16C1103.14 818.9 1106.5 822.68 1106.67 827.16L1107.03 844.83L1102.72 844.92Z" />
					</g>
					<g id="&lt;Group&gt;">
						<path id="&lt;Path&gt;" class="shp4" d="M1113.71 900.26L1047.62 895.57C1042.96 895.24 1039.44 891.24 1039.74 886.62L1042.75 839.78C1043.06 834.87 1047.52 831.27 1052.42 831.96L1131.64 843.09C1137.08 843.86 1140.38 849.48 1138.35 854.55L1122.23 894.95C1120.86 898.37 1117.42 900.52 1113.71 900.26Z" />
					</g>
					<g id="&lt;Group&gt;">
						<path id="&lt;Path&gt;" class="shp7" d="M1088.43 870.14L1088.29 870.08L1041.95 849.52L1042.35 848.6L1088.56 869.1L1135.67 860.55L1135.85 861.54L1088.43 870.14Z" />
					</g>
					<g id="&lt;Group&gt;">
						<path id="&lt;Path&gt;" class="shp7" d="M1088.57 873.93C1087.07 873.68 1086.05 872.26 1086.3 870.77L1086.74 868.16C1086.99 866.67 1088.42 865.66 1089.92 865.91C1091.42 866.16 1092.44 867.58 1092.19 869.07L1091.75 871.68C1091.5 873.17 1090.07 874.18 1088.57 873.93Z" />
					</g>
				</g>
				<g id="&lt;Group&gt;">
					<path id="&lt;Path&gt;" class="shp6" d="M1110.65 817.21C1109.61 815.21 1108.46 811.88 1107.31 808.71C1106.38 806.15 1105.46 803.69 1104.59 802.09C1104.03 801.06 1097.87 800.47 1086.13 800.34C1084.21 803.5 1082.46 807.74 1080.87 813.06C1080.67 813.48 1080.5 813.96 1080.38 814.52C1079.53 818.4 1077.62 823.74 1079.99 825.79C1082.58 828.02 1084.18 824.17 1084.83 822.06C1084.39 823.99 1083.87 827.72 1085.77 829.82C1087.77 832.04 1090.07 825.98 1091.07 822.9C1091.07 822.9 1091.08 822.9 1091.09 822.91C1090.38 825.67 1089.4 831.04 1091.93 832.49C1094.92 834.22 1097.22 825.97 1097.84 824.09C1097.91 824.09 1097.98 824.1 1098.05 824.1C1099.8 835.83 1104.48 829.91 1105.54 820.87C1107.25 822.75 1111.13 826.12 1112.39 825.25C1113.84 824.24 1111.47 818.78 1110.65 817.21Z" />
				</g>
				<g id="&lt;Group&gt;">
					<path id="&lt;Path&gt;" class="shp7" d="M1148.31 660.8C1117.09 669.8 1097.52 694.81 1089.61 735.83C1084.05 764.65 1081.13 785.44 1082.84 796.97C1083.33 800.26 1085.91 802.85 1089.21 803.43L1100.42 805.4C1104.35 806.09 1108.14 803.6 1109.02 799.74C1113.61 779.63 1128.22 721.45 1147.25 703.95L1148.31 660.8Z" />
				</g>
				<g id="&lt;Group&gt;">
					<g id="&lt;Group&gt;">
						<path id="&lt;Path&gt;" class="shp7" d="M1249.63 772.05C1245.67 771.57 1241.86 770.23 1238.32 768.07C1226.84 761.07 1219.14 746.28 1213.35 720.1C1210.68 708.05 1202.9 693.52 1202.82 693.38L1228.7 679.61C1229.1 680.34 1238.48 697.79 1242.03 713.86C1244.04 722.95 1245.11 665.56 1250.06 660.14C1252.08 657.92 1260.03 663.82 1273.89 677.83C1275.86 685.2 1277.49 733.1 1277.18 741.69C1276.96 747.75 1276.23 752.62 1274.95 756.58C1271.57 767.04 1264.5 770.29 1260.58 771.29C1256.87 772.24 1253.19 772.49 1249.63 772.05Z" />
					</g>
				</g>
				<g id="&lt;Group&gt;">
					<path id="&lt;Path&gt;" class="shp4" d="M1238.81 742.94C1238.79 742.78 1236.82 726.79 1242.81 714.26L1243.29 714.49C1237.38 726.88 1239.32 742.72 1239.34 742.88L1238.81 742.94Z" />
				</g>
				<g id="&lt;Group&gt;">
					<path id="&lt;Path&gt;" class="shp4" d="M1117.1 769.59L1116.58 769.45C1122.74 746.27 1134.71 721.31 1134.83 721.06L1135.31 721.29C1135.19 721.54 1123.24 746.46 1117.1 769.59Z" />
				</g>
				<g id="&lt;Group&gt;">
					<path id="&lt;Path&gt;" class="shp4" d="M1232.1 762.87L1231.56 762.85C1232.3 730.79 1217.45 686.07 1217.3 685.62L1217.81 685.45C1217.96 685.9 1232.84 730.71 1232.1 762.87Z" />
				</g>
				<g id="&lt;Group&gt;">
					<path id="&lt;Path&gt;" class="shp11" d="M1179.52 631.44C1177.85 631.44 1176.6 631.16 1176.57 631.16C1176.44 631.13 1176.36 631 1176.39 630.88C1176.42 630.75 1176.54 630.67 1176.67 630.7C1176.75 630.72 1184.55 632.46 1187.08 626.99C1187.13 626.87 1187.27 626.82 1187.39 626.87C1187.51 626.93 1187.56 627.06 1187.5 627.18C1185.86 630.75 1182.16 631.44 1179.52 631.44Z" />
				</g>
			</g>
			<g id="&lt;Group&gt;">
				<path id="&lt;Path&gt;" class="shp15" d="M1171.83 229.83C1170.69 229.83 1169.53 229.63 1168.41 229.21C1163.39 227.32 1160.86 221.72 1162.75 216.71L1241.8 6.86C1243.69 1.85 1249.28 -0.68 1254.3 1.2C1259.31 3.09 1261.85 8.69 1259.96 13.7L1180.91 223.55C1179.44 227.44 1175.75 229.83 1171.83 229.83Z" />
			</g>
			<g id="&lt;Group&gt;">
				<path id="&lt;Path&gt;" class="shp15" d="M1249.55 297.48C1246.46 297.48 1243.42 296.01 1241.54 293.27C1238.51 288.85 1239.63 282.81 1244.05 279.78L1536.22 79.22C1540.64 76.19 1546.67 77.31 1549.71 81.73C1552.74 86.14 1551.62 92.18 1547.2 95.22L1255.03 295.77C1253.35 296.93 1251.44 297.48 1249.55 297.48Z" />
			</g>
			<g id="&lt;Group&gt;">
				<path id="&lt;Path&gt;" class="shp15" d="M1407.66 402.59C1407.64 402.59 1407.61 402.59 1407.59 402.59L1270.09 401.58C1264.74 401.54 1260.42 397.17 1260.46 391.81C1260.5 386.45 1264.86 382.16 1270.24 382.18L1407.73 383.18C1413.09 383.22 1417.4 387.6 1417.36 392.96C1417.32 398.29 1412.99 402.59 1407.66 402.59Z" />
			</g>
		</g>
	</g>
</svg>