<svg version="1.2" baseProfile="tiny-ps" xmlns="http://www.w3.org/2000/svg" viewBox="0 0 1065 428" width="1065" height="428">
	<title>Screens</title>
	<style>
		tspan { white-space:pre }
		.shp0 { fill: #263238 } 
		.shp1 { fill: #ff725e } 
		.shp2 { fill: #ffffff } 
		.shp3 { fill: #f5f5f5 } 
		.shp4 { fill: #455a64 } 
	</style>
	<g id="Screens">
		<g id="&lt;Group&gt;">
			<g id="&lt;Group&gt;">
				<path id="&lt;Path&gt;" class="shp0" d="M409.31 427.45L15.98 427.45C7.29 427.45 0.24 420.41 0.24 411.72L0.24 179.9C0.24 171.21 7.29 164.17 15.98 164.17L409.31 164.17C418 164.17 425.04 171.21 425.04 179.9L425.04 411.72C425.04 420.41 418 427.45 409.31 427.45Z" />
			</g>
			<g id="&lt;Group&gt;">
				<g id="&lt;Group&gt;">
					<path id="&lt;Path&gt;" class="shp1" d="M245 299.39C245 317.26 230.52 331.75 212.64 331.75C194.77 331.75 180.28 317.26 180.28 299.39C180.28 281.52 194.77 267.03 212.64 267.03C230.52 267.03 245 281.52 245 299.39Z" />
				</g>
				<g id="&lt;Group&gt;">
					<path id="&lt;Path&gt;" class="shp2" d="M204.85 308.86L204.85 289.76C204.85 288.83 205.85 288.25 206.66 288.71L223.72 298.33C224.55 298.79 224.55 299.99 223.72 300.45L206.65 309.92C205.84 310.37 204.85 309.78 204.85 308.86Z" />
				</g>
			</g>
			<g id="&lt;Group&gt;">
				<path id="&lt;Compound Path&gt;" class="shp2" d="M24.53 397.21L24.53 397.89L21.33 397.89L21.33 397.35L23.05 395.72C23.47 395.31 23.55 395.06 23.55 394.82C23.55 394.42 23.27 394.19 22.74 394.19C22.32 394.19 21.97 394.34 21.73 394.65L21.16 394.21C21.5 393.76 22.1 393.49 22.81 393.49C23.75 393.49 24.36 393.97 24.36 394.74C24.36 395.16 24.24 395.54 23.64 396.11L22.48 397.21L24.53 397.21Z" />
				<path id="&lt;Compound Path&gt;" class="shp2" d="M24.96 395.06C24.96 394.75 25.19 394.55 25.47 394.55C25.75 394.55 25.98 394.75 25.98 395.06C25.98 395.36 25.75 395.57 25.47 395.57C25.19 395.57 24.96 395.36 24.96 395.06ZM24.96 397.42C24.96 397.11 25.19 396.91 25.47 396.91C25.75 396.91 25.98 397.11 25.98 397.42C25.98 397.72 25.75 397.93 25.47 397.93C25.19 397.93 24.96 397.72 24.96 397.42Z" />
				<path id="&lt;Compound Path&gt;" class="shp2" d="M27.99 393.55L27.99 397.89L27.19 397.89L27.19 394.23L26.27 394.23L26.27 393.55L27.99 393.55Z" />
				<path id="&lt;Compound Path&gt;" class="shp2" d="M32.72 396.91L31.95 396.91L31.95 397.89L31.17 397.89L31.17 396.91L28.79 396.91L28.79 396.35L30.93 393.55L31.79 393.55L29.78 396.23L31.19 396.23L31.19 395.35L31.95 395.35L31.95 396.23L32.72 396.23L32.72 396.91Z" />
			</g>
			<g id="&lt;Group&gt;">
				<path id="&lt;Path&gt;" class="shp2" d="M368.8 396.67L39.8 396.67L39.8 395.17L368.8 395.17L368.8 396.67Z" />
			</g>
			<g id="&lt;Group&gt;">
				<path id="&lt;Path&gt;" class="shp1" d="M142.37 397.56L39.56 397.56L39.56 393.56L142.37 393.56L142.37 397.56Z" />
			</g>
			<g id="&lt;Group&gt;">
				<path id="&lt;Path&gt;" class="shp1" d="M145.69 395.92C145.69 398.69 143.45 400.93 140.68 400.93C137.92 400.93 135.68 398.69 135.68 395.92C135.68 393.16 137.92 390.92 140.68 390.92C143.45 390.92 145.69 393.16 145.69 395.92Z" />
			</g>
			<g id="&lt;Group&gt;">
				<path id="&lt;Compound Path&gt;" fill-rule="evenodd" class="shp2" d="M377.09 395.87C377.09 396.74 376.39 397.28 375.5 397.28C374.32 397.28 373.63 396.52 373.63 395.13C373.63 393.64 374.49 392.82 375.75 392.82C376.18 392.82 376.6 392.91 376.89 393.1L376.59 393.71C376.36 393.55 376.07 393.5 375.77 393.5C374.95 393.5 374.44 394 374.44 394.99L374.44 395C374.7 394.69 375.11 394.54 375.59 394.54C376.45 394.54 377.09 395.06 377.09 395.87ZM376.31 395.91C376.31 395.46 375.97 395.18 375.44 395.18C374.92 395.18 374.56 395.49 374.56 395.92C374.56 396.33 374.88 396.65 375.46 396.65C375.96 396.65 376.31 396.36 376.31 395.91Z" />
				<path id="&lt;Compound Path&gt;" class="shp2" d="M377.48 394.39C377.48 394.08 377.71 393.87 377.99 393.87C378.27 393.87 378.5 394.08 378.5 394.39C378.5 394.69 378.27 394.9 377.99 394.9C377.71 394.9 377.48 394.69 377.48 394.39ZM377.48 396.75C377.48 396.44 377.71 396.23 377.99 396.23C378.27 396.23 378.5 396.44 378.5 396.75C378.5 397.05 378.27 397.26 377.99 397.26C377.71 397.26 377.48 397.05 377.48 396.75Z" />
				<path id="&lt;Compound Path&gt;" fill-rule="evenodd" class="shp2" d="M379.01 395.05C379.01 393.63 379.79 392.82 380.82 392.82C381.86 392.82 382.64 393.63 382.64 395.05C382.64 396.48 381.86 397.28 380.82 397.28C379.79 397.28 379.01 396.48 379.01 395.05ZM381.83 395.05C381.83 394 381.42 393.52 380.82 393.52C380.23 393.52 379.83 394 379.83 395.05C379.83 396.1 380.23 396.58 380.82 396.58C381.42 396.58 381.83 396.1 381.83 395.05Z" />
				<path id="&lt;Compound Path&gt;" fill-rule="evenodd" class="shp2" d="M383.18 395.05C383.18 393.63 383.96 392.82 384.99 392.82C386.02 392.82 386.8 393.63 386.8 395.05C386.8 396.48 386.02 397.28 384.99 397.28C383.96 397.28 383.18 396.48 383.18 395.05ZM385.99 395.05C385.99 394 385.58 393.52 384.99 393.52C384.4 393.52 383.99 394 383.99 395.05C383.99 396.1 384.4 396.58 384.99 396.58C385.58 396.58 385.99 396.1 385.99 395.05Z" />
			</g>
			<g id="&lt;Group&gt;">
				<path id="&lt;Path&gt;" class="shp2" d="M393.81 394.78L392.31 394.78L392.31 390.46L396.62 390.46L396.62 391.96L393.81 391.96L393.81 394.78Z" />
			</g>
			<g id="&lt;Group&gt;">
				<path id="&lt;Path&gt;" class="shp2" d="M396.63 400.43L392.3 400.43L392.3 396.11L393.8 396.11L393.8 398.93L396.63 398.93L396.63 400.43Z" />
			</g>
			<g id="&lt;Group&gt;">
				<path id="&lt;Path&gt;" class="shp2" d="M403.51 400.43L399.2 400.43L399.2 398.93L402.01 398.93L402.01 396.1L403.51 396.1L403.51 400.43Z" />
			</g>
			<g id="&lt;Group&gt;">
				<path id="&lt;Path&gt;" class="shp2" d="M403.52 394.77L402.02 394.77L402.02 391.96L399.19 391.96L399.19 390.46L403.52 390.46L403.52 394.77Z" />
			</g>
			<g id="&lt;Group&gt;">
				<g id="&lt;Group&gt;">
					<path id="&lt;Path&gt;" class="shp2" d="M347.53 189.77C347.47 189.71 348.29 189.64 349.84 189.57C351.38 189.49 353.67 189.39 356.48 189.35L356.9 189.34L356.9 189.77C356.93 193.12 356.96 196.97 357 201.13L357.01 202.4L356.11 201.5C355.73 201.12 355.33 200.72 354.92 200.31C353.88 199.27 352.87 198.25 351.89 197.26L352.59 197.28C350.91 198.76 349.31 200.17 347.84 201.47L347.06 202.15L347.08 201.13C347.12 197.63 347.22 194.73 347.31 192.75C347.39 190.77 347.46 189.7 347.53 189.77C347.6 189.83 347.67 191.04 347.76 193.04C347.84 195.05 347.94 197.83 347.99 201.13L347.23 200.79C348.68 199.47 350.25 198.03 351.91 196.52L352.26 196.19L352.61 196.54C353.6 197.52 354.61 198.53 355.66 199.57C356.06 199.98 356.47 200.39 356.85 200.77L355.96 201.13C356 196.97 356.03 193.12 356.06 189.77L356.48 190.18C353.86 190.14 351.67 190.04 350.1 189.96C348.53 189.89 347.59 189.83 347.53 189.77Z" />
				</g>
			</g>
			<g id="&lt;Group&gt;">
				<g id="&lt;Group&gt;">
					<path id="&lt;Path&gt;" class="shp2" d="M380.44 191.18C380.54 191.14 379.71 192.14 378.22 193.96C376.74 195.77 374.53 198.46 371.86 201.47L371 202.44L370.99 201.13C370.99 199.36 370.98 197.46 370.97 195.5L370.97 194.94L371.13 195.32C369.74 193.97 368.41 192.68 367.16 191.46L366.27 190.6L367.51 190.61C371.42 190.66 374.77 190.84 377.03 190.96C379.3 191.08 380.54 191.14 380.44 191.18C380.34 191.23 378.88 191.27 376.57 191.36C374.24 191.46 371.13 191.59 367.5 191.6L367.85 190.75C369.11 191.95 370.45 193.23 371.85 194.57L372.01 194.72L372.01 194.94L372.01 195.5C372 197.46 371.99 199.36 371.99 201.13L371.12 200.8C373.64 198.03 375.91 195.75 377.6 194.03C379.29 192.32 380.33 191.23 380.44 191.18Z" />
				</g>
			</g>
			<g id="&lt;Group&gt;">
				<g id="&lt;Group&gt;">
					<path id="&lt;Path&gt;" class="shp2" d="M380.44 191.18C380.55 191.45 378.64 192.51 376.17 193.54C373.69 194.58 371.6 195.21 371.49 194.94C371.38 194.68 373.29 193.62 375.76 192.58C378.23 191.55 380.33 190.92 380.44 191.18Z" />
				</g>
			</g>
			<g id="&lt;Group&gt;">
				<g id="&lt;Group&gt;">
					<path id="&lt;Path&gt;" class="shp2" d="M396.48 189.77C396.48 189.71 397.05 189.59 398.08 189.77C399.08 189.95 400.6 190.55 401.81 192.04C403.02 193.49 403.75 195.97 402.88 198.42C402.09 200.85 399.51 202.99 396.48 202.96C393.45 202.99 390.87 200.85 390.08 198.42C389.21 195.97 389.94 193.49 391.15 192.04C392.36 190.55 393.88 189.95 394.88 189.77C395.91 189.59 396.48 189.71 396.48 189.77C396.48 189.86 395.92 189.87 394.98 190.16C394.06 190.44 392.74 191.1 391.74 192.49C390.73 193.83 390.19 196.01 390.98 198.1C391.71 200.17 393.91 201.94 396.48 201.92C399.05 201.94 401.25 200.17 401.98 198.1C402.77 196.01 402.23 193.83 401.22 192.49C400.22 191.1 398.89 190.44 397.98 190.16C397.04 189.87 396.48 189.86 396.48 189.77Z" />
				</g>
			</g>
			<g id="&lt;Group&gt;">
				<g id="&lt;Group&gt;">
					<path id="&lt;Path&gt;" class="shp2" d="M398.64 198.8C398.43 199 397.06 197.96 395.57 196.47L395.42 196.32L395.42 196.1L395.42 196.06C395.42 193.94 395.65 192.21 395.94 192.21C396.22 192.21 396.46 193.94 396.46 196.06L396.46 196.1L396.31 195.73C397.8 197.23 398.84 198.6 398.64 198.8Z" />
				</g>
			</g>
			<g id="&lt;Group&gt;">
				<g id="&lt;Group&gt;">
					<path id="&lt;Path&gt;" class="shp2" d="M242.61 198.38C242.61 198.67 198.95 198.9 145.11 198.9C91.25 198.9 47.6 198.67 47.6 198.38C47.6 198.1 91.25 197.86 145.11 197.86C198.95 197.86 242.61 198.1 242.61 198.38Z" />
				</g>
			</g>
			<g id="&lt;Group&gt;">
				<path id="&lt;Path&gt;" class="shp2" d="M38.4 198.38C38.4 202.63 34.95 206.07 30.71 206.07C26.46 206.07 23.02 202.63 23.02 198.38C23.02 194.14 26.46 190.69 30.71 190.69C34.95 190.69 38.4 194.14 38.4 198.38Z" />
			</g>
		</g>
		<g id="&lt;Group&gt;">
			<g id="&lt;Group&gt;">
				<path id="&lt;Path&gt;" class="shp3" d="M1048.43 240.39L756.69 240.39C748 240.39 740.96 233.35 740.96 224.66L740.96 55.81C740.96 47.12 748 40.08 756.69 40.08L1048.43 40.08C1057.12 40.08 1064.16 47.12 1064.16 55.81L1064.16 224.66C1064.16 233.35 1057.12 240.39 1048.43 240.39Z" />
			</g>
			<g id="&lt;Group&gt;">
				<path id="&lt;Path&gt;" class="shp4" d="M1012.86 127.71C1005.13 122.98 996.49 118.96 987.44 119.3C974.58 119.79 963.85 128.79 954.23 137.33C939.23 150.63 924.23 163.93 909.23 177.23C907.49 178.77 905.43 180.41 903.14 180.07C901.33 179.81 899.95 178.36 898.72 177C885.43 162.26 872.15 147.53 858.86 132.79C850.6 123.62 841.16 113.84 828.87 112.64C818.91 111.68 809.4 116.68 801.02 122.16C777.26 137.73 756.45 158.68 741.42 182.79L740.96 224.63C743.6 233.67 751.65 240.39 760.21 240.39L1044.91 240.39C1053.36 240.39 1062.63 234.46 1064.16 222.74L1064.16 183.34C1053.2 160.51 1034.47 140.92 1012.86 127.71Z" />
			</g>
			<g id="&lt;Group&gt;">
				<g id="&lt;Group&gt;">
					<path id="&lt;Compound Path&gt;" class="shp0" d="M759.42 217.38L759.42 217.9L757 217.9L757 217.49L758.31 216.25C758.63 215.94 758.68 215.75 758.68 215.57C758.68 215.27 758.48 215.09 758.07 215.09C757.75 215.09 757.48 215.2 757.3 215.44L756.87 215.11C757.13 214.76 757.58 214.56 758.12 214.56C758.84 214.56 759.3 214.92 759.3 215.51C759.3 215.83 759.21 216.12 758.75 216.55L757.87 217.38L759.42 217.38Z" />
					<path id="&lt;Compound Path&gt;" class="shp0" d="M759.76 215.75C759.76 215.52 759.94 215.36 760.15 215.36C760.36 215.36 760.53 215.52 760.53 215.75C760.53 215.98 760.36 216.14 760.15 216.14C759.94 216.14 759.76 215.98 759.76 215.75ZM759.76 217.54C759.76 217.31 759.94 217.15 760.15 217.15C760.36 217.15 760.53 217.31 760.53 217.54C760.53 217.77 760.36 217.93 760.15 217.93C759.94 217.93 759.76 217.77 759.76 217.54Z" />
					<path id="&lt;Compound Path&gt;" class="shp0" d="M762.07 214.61L762.07 217.9L761.46 217.9L761.46 215.12L760.76 215.12L760.76 214.61L762.07 214.61Z" />
					<path id="&lt;Compound Path&gt;" class="shp0" d="M765.66 217.15L765.07 217.15L765.07 217.9L764.48 217.9L764.48 217.15L762.68 217.15L762.68 216.73L764.3 214.61L764.95 214.61L763.42 216.63L764.5 216.63L764.5 215.97L765.07 215.97L765.07 216.63L765.66 216.63L765.66 217.15Z" />
				</g>
				<g id="&lt;Group&gt;">
					<path id="&lt;Path&gt;" class="shp0" d="M1021.37 217.15L771.05 217.15L771.05 215.65L1021.37 215.65L1021.37 217.15Z" />
				</g>
				<g id="&lt;Group&gt;">
					<path id="&lt;Path&gt;" class="shp1" d="M849.09 218.13L770.87 218.13L770.87 214.13L849.09 214.13L849.09 218.13Z" />
				</g>
				<g id="&lt;Group&gt;">
					<path id="&lt;Path&gt;" class="shp1" d="M851.62 216.4C851.62 218.51 849.91 220.21 847.81 220.21C845.7 220.21 844 218.51 844 216.4C844 214.3 845.7 212.6 847.81 212.6C849.91 212.6 851.62 214.3 851.62 216.4Z" />
				</g>
				<g id="&lt;Group&gt;">
					<path id="&lt;Compound Path&gt;" fill-rule="evenodd" class="shp0" d="M1027.67 216.37C1027.67 217.02 1027.13 217.43 1026.46 217.43C1025.56 217.43 1025.04 216.86 1025.04 215.8C1025.04 214.67 1025.7 214.05 1026.65 214.05C1026.98 214.05 1027.29 214.12 1027.51 214.26L1027.29 214.72C1027.11 214.61 1026.89 214.56 1026.66 214.56C1026.04 214.56 1025.65 214.95 1025.65 215.7L1025.65 215.7C1025.85 215.47 1026.17 215.36 1026.53 215.36C1027.18 215.36 1027.67 215.75 1027.67 216.37ZM1027.07 216.4C1027.07 216.05 1026.81 215.84 1026.42 215.84C1026.02 215.84 1025.75 216.08 1025.75 216.4C1025.75 216.71 1025.99 216.95 1026.43 216.95C1026.81 216.95 1027.07 216.74 1027.07 216.4Z" />
					<path id="&lt;Compound Path&gt;" class="shp0" d="M1027.97 215.24C1027.97 215 1028.14 214.85 1028.36 214.85C1028.57 214.85 1028.74 215 1028.74 215.24C1028.74 215.47 1028.57 215.63 1028.36 215.63C1028.14 215.63 1027.97 215.47 1027.97 215.24ZM1027.97 217.03C1027.97 216.8 1028.14 216.64 1028.36 216.64C1028.57 216.64 1028.74 216.8 1028.74 217.03C1028.74 217.26 1028.57 217.42 1028.36 217.42C1028.14 217.42 1027.97 217.26 1027.97 217.03Z" />
					<path id="&lt;Compound Path&gt;" fill-rule="evenodd" class="shp0" d="M1029.14 215.74C1029.14 214.66 1029.73 214.05 1030.51 214.05C1031.29 214.05 1031.89 214.66 1031.89 215.74C1031.89 216.82 1031.29 217.43 1030.51 217.43C1029.73 217.43 1029.14 216.82 1029.14 215.74ZM1031.27 215.74C1031.27 214.95 1030.96 214.58 1030.51 214.58C1030.06 214.58 1029.75 214.95 1029.75 215.74C1029.75 216.54 1030.06 216.9 1030.51 216.9C1030.96 216.9 1031.27 216.54 1031.27 215.74Z" />
					<path id="&lt;Compound Path&gt;" fill-rule="evenodd" class="shp0" d="M1032.31 215.74C1032.31 214.66 1032.9 214.05 1033.68 214.05C1034.46 214.05 1035.06 214.66 1035.06 215.74C1035.06 216.82 1034.46 217.43 1033.68 217.43C1032.9 217.43 1032.31 216.82 1032.31 215.74ZM1034.44 215.74C1034.44 214.95 1034.13 214.58 1033.68 214.58C1033.23 214.58 1032.92 214.95 1032.92 215.74C1032.92 216.54 1033.23 216.9 1033.68 216.9C1034.13 216.9 1034.44 216.54 1034.44 215.74Z" />
				</g>
				<g id="&lt;Group&gt;">
					<path id="&lt;Path&gt;" class="shp0" d="M1040.58 215.54L1039.08 215.54L1039.08 212.07L1042.54 212.07L1042.54 213.57L1040.58 213.57L1040.58 215.54Z" />
				</g>
				<g id="&lt;Group&gt;">
					<path id="&lt;Path&gt;" class="shp0" d="M1042.54 220.01L1039.07 220.01L1039.07 216.55L1040.57 216.55L1040.57 218.51L1042.54 218.51L1042.54 220.01Z" />
				</g>
				<g id="&lt;Group&gt;">
					<path id="&lt;Path&gt;" class="shp0" d="M1047.96 220.01L1044.5 220.01L1044.5 218.51L1046.46 218.51L1046.46 216.54L1047.96 216.54L1047.96 220.01Z" />
				</g>
				<g id="&lt;Group&gt;">
					<path id="&lt;Path&gt;" class="shp0" d="M1047.96 215.53L1046.46 215.53L1046.46 213.57L1044.5 213.57L1044.5 212.07L1047.96 212.07L1047.96 215.53Z" />
				</g>
				<g id="&lt;Group&gt;">
					<g id="&lt;Group&gt;">
						<path id="&lt;Path&gt;" class="shp0" d="M1005.19 59.55C1005.06 59.45 1007.65 59.25 1012 59.13L1012.41 59.12L1012.42 59.55C1012.47 62 1012.51 64.97 1012.52 68.2L1012.52 69.45L1011.63 68.57C1011.34 68.28 1011.03 67.97 1010.72 67.66C1009.93 66.87 1009.16 66.09 1008.42 65.34L1009.12 65.36C1007.84 66.48 1006.63 67.54 1005.49 68.54L1004.71 69.22L1004.73 68.2C1004.84 62.79 1005.08 59.4 1005.19 59.55C1005.3 59.7 1005.53 63.25 1005.64 68.2L1004.88 67.86C1006 66.84 1007.19 65.74 1008.44 64.6L1008.79 64.27L1009.14 64.62C1009.89 65.37 1010.66 66.14 1011.46 66.92C1011.77 67.23 1012.08 67.54 1012.36 67.83L1011.48 68.2C1011.49 64.97 1011.52 62 1011.58 59.55L1012 59.97C1008.08 59.85 1005.32 59.65 1005.19 59.55Z" />
					</g>
				</g>
				<g id="&lt;Group&gt;">
					<g id="&lt;Group&gt;">
						<path id="&lt;Path&gt;" class="shp0" d="M1030.23 60.63C1030.33 60.58 1029.72 61.33 1028.61 62.73C1027.51 64.12 1025.84 66.21 1023.79 68.53L1022.93 69.5L1022.92 68.2C1022.91 66.84 1022.9 65.4 1022.9 63.91L1022.9 63.49L1023.06 63.86C1022.01 62.84 1021 61.86 1020.04 60.93L1019.15 60.06L1020.39 60.08C1023.39 60.12 1025.98 60.3 1027.69 60.41C1029.41 60.53 1030.33 60.58 1030.23 60.63C1030.12 60.67 1028.99 60.72 1027.22 60.81C1025.45 60.91 1023.11 61.05 1020.38 61.06L1020.73 60.22C1021.69 61.14 1022.72 62.11 1023.78 63.11L1023.94 63.27L1023.94 63.49L1023.94 63.91C1023.93 65.4 1023.92 66.84 1023.91 68.2L1023.05 67.87C1024.95 65.79 1026.68 64.1 1027.99 62.8C1029.3 61.52 1030.12 60.68 1030.23 60.63Z" />
					</g>
				</g>
				<g id="&lt;Group&gt;">
					<g id="&lt;Group&gt;">
						<path id="&lt;Path&gt;" class="shp0" d="M1030.23 60.63C1030.34 60.9 1028.9 61.75 1027.02 62.54C1025.14 63.33 1023.53 63.75 1023.42 63.49C1023.31 63.22 1024.74 62.37 1026.62 61.58C1028.5 60.79 1030.11 60.36 1030.23 60.63Z" />
					</g>
				</g>
				<g id="&lt;Group&gt;">
					<g id="&lt;Group&gt;">
						<path id="&lt;Path&gt;" class="shp0" d="M1042.43 59.55C1042.43 59.49 1042.86 59.38 1043.66 59.5C1044.43 59.63 1045.61 60.08 1046.55 61.23C1047.5 62.34 1048.08 64.27 1047.41 66.18C1046.8 68.07 1044.79 69.74 1042.43 69.71C1040.07 69.74 1038.06 68.07 1037.45 66.18C1036.78 64.27 1037.36 62.34 1038.3 61.23C1039.25 60.08 1040.43 59.63 1041.2 59.5C1042 59.38 1042.43 59.49 1042.43 59.55C1042.43 59.64 1042 59.67 1041.3 59.9C1040.61 60.13 1039.63 60.63 1038.89 61.68C1038.15 62.69 1037.76 64.31 1038.35 65.85C1038.9 67.38 1040.53 68.69 1042.43 68.67C1044.33 68.69 1045.96 67.38 1046.51 65.85C1047.1 64.31 1046.71 62.69 1045.97 61.68C1045.23 60.63 1044.24 60.13 1043.56 59.9C1042.86 59.67 1042.43 59.64 1042.43 59.55Z" />
					</g>
				</g>
				<g id="&lt;Group&gt;">
					<g id="&lt;Group&gt;">
						<path id="&lt;Path&gt;" class="shp0" d="M1044.07 66.42C1043.87 66.63 1042.79 65.87 1041.65 64.74L1041.5 64.59L1041.5 64.37L1041.5 64.34C1041.5 62.72 1041.73 61.41 1042.02 61.41C1042.3 61.41 1042.54 62.72 1042.54 64.34L1042.54 64.37L1042.39 64C1043.52 65.14 1044.27 66.22 1044.07 66.42Z" />
					</g>
				</g>
				<g id="&lt;Group&gt;">
					<g id="&lt;Group&gt;">
						<path id="&lt;Path&gt;" class="shp0" d="M925.36 66.11C925.36 66.39 892.14 66.63 851.18 66.63C810.2 66.63 776.99 66.39 776.99 66.11C776.99 65.82 810.2 65.59 851.18 65.59C892.14 65.59 925.36 65.82 925.36 66.11Z" />
					</g>
				</g>
				<g id="&lt;Group&gt;">
					<path id="&lt;Path&gt;" class="shp0" d="M769.98 66.11C769.98 69.34 767.36 71.96 764.13 71.96C760.9 71.96 758.28 69.34 758.28 66.11C758.28 62.88 760.9 60.26 764.13 60.26C767.36 60.26 769.98 62.88 769.98 66.11Z" />
				</g>
			</g>
			<g id="&lt;Group&gt;">
				<g id="&lt;Group&gt;">
					<path id="&lt;Path&gt;" class="shp0" d="M1048.43 240.39C1048.42 240.33 1049.33 240.42 1051.04 240.11C1052.72 239.79 1055.32 239.11 1057.99 237.01C1060.62 234.97 1063.34 231.36 1063.9 226.42C1064.1 221.49 1063.93 215.73 1063.96 209.29C1063.92 183.46 1063.86 146.12 1063.79 99.99C1063.78 88.45 1063.77 76.36 1063.76 63.77C1063.72 60.64 1063.83 57.4 1063.68 54.27C1063.34 51.16 1062.07 48.12 1059.95 45.73C1057.86 43.32 1054.96 41.6 1051.8 40.89C1050.21 40.53 1048.6 40.48 1046.9 40.5C1045.22 40.51 1043.53 40.51 1041.84 40.51C1014.7 40.52 985.71 40.54 955.21 40.56C894.2 40.57 827.12 40.58 756.71 40.6C752.44 40.56 748.25 42.46 745.42 45.62C742.52 48.76 741.2 53.03 741.48 57.33C741.47 66.02 741.47 74.66 741.47 83.23C741.47 100.38 741.47 117.28 741.47 133.88C741.46 150.48 741.46 166.79 741.45 182.76C741.45 190.75 741.45 198.65 741.44 206.46C741.44 210.37 741.44 214.25 741.44 218.11C741.44 220.04 741.44 221.96 741.44 223.88C741.42 225.79 741.61 227.62 742.19 229.39C743.31 232.92 745.81 235.95 748.95 237.79C750.52 238.72 752.25 239.36 754.04 239.68C755.81 240.02 757.66 239.9 759.54 239.92C766.97 239.93 774.3 239.93 781.53 239.94C795.98 239.95 810.01 239.95 823.58 239.96C850.71 239.99 875.99 240.01 899.06 240.03C945.19 240.1 982.53 240.15 1008.35 240.19C1021.24 240.23 1031.26 240.27 1038.07 240.29C1041.45 240.31 1044.04 240.33 1045.8 240.34C1046.96 240.35 1047.83 240.37 1048.43 240.39C1047.83 240.42 1046.96 240.44 1045.8 240.45C1044.04 240.46 1041.45 240.48 1038.07 240.5C1031.26 240.52 1021.24 240.55 1008.35 240.6C982.53 240.64 945.19 240.69 899.06 240.76C875.99 240.78 850.71 240.8 823.58 240.83C810.01 240.83 795.98 240.84 781.53 240.85C774.3 240.86 766.97 240.86 759.54 240.86C757.7 240.84 755.79 240.97 753.88 240.61C751.98 240.27 750.14 239.6 748.47 238.61C745.13 236.65 742.47 233.45 741.28 229.69C740.66 227.83 740.46 225.81 740.47 223.88C740.47 221.96 740.47 220.04 740.47 218.11C740.47 214.25 740.47 210.37 740.47 206.46C740.46 198.65 740.46 190.75 740.46 182.76C740.45 166.79 740.45 150.48 740.45 133.88C740.44 117.28 740.44 100.38 740.44 83.23C740.44 74.66 740.44 66.02 740.44 57.33C740.38 55.19 740.51 52.84 741.26 50.72C741.97 48.58 743.13 46.59 744.65 44.92C747.66 41.55 752.15 39.52 756.71 39.56C827.12 39.57 894.2 39.58 955.21 39.6C985.71 39.61 1014.7 39.63 1041.84 39.64C1043.53 39.65 1045.22 39.65 1046.9 39.65C1048.56 39.62 1050.32 39.68 1051.99 40.06C1055.32 40.82 1058.38 42.64 1060.57 45.19C1062.81 47.7 1064.15 50.91 1064.49 54.19C1064.65 57.48 1064.53 60.6 1064.56 63.77C1064.55 76.36 1064.54 88.45 1064.53 99.99C1064.46 146.12 1064.4 183.46 1064.37 209.29C1064.3 215.75 1064.44 221.46 1064.21 226.45C1063.6 231.49 1060.8 235.14 1058.12 237.17C1055.39 239.28 1052.75 239.92 1051.06 240.21C1050.19 240.36 1049.54 240.38 1049.09 240.39C1048.8 240.4 1048.58 240.4 1048.43 240.39Z" />
				</g>
			</g>
			<g id="&lt;Group&gt;">
				<path id="&lt;Path&gt;" class="shp4" d="M929.47 110.22C929.47 122.09 919.85 131.71 907.99 131.71C896.12 131.71 886.5 122.09 886.5 110.22C886.5 98.36 896.12 88.74 907.99 88.74C919.85 88.74 929.47 98.36 929.47 110.22Z" />
			</g>
		</g>
		<g id="&lt;Group&gt;">
			<g id="&lt;Group&gt;">
				<g id="&lt;Group&gt;">
					<g id="&lt;Group&gt;">
						<g id="&lt;Group&gt;">
							<g id="&lt;Group&gt;">
								<path id="&lt;Path&gt;" class="shp1" d="M576.44 117.71C576.37 117.53 578.53 117.93 581.53 115.89C582.94 114.84 584.48 113.08 585.13 110.56C585.48 109.31 585.45 107.91 585.45 106.37C585.45 104.83 585.45 103.21 585.45 101.48C585.52 87.58 585.61 67.63 585.72 43.03C585.76 36.85 585.8 30.39 585.85 23.66C585.87 20.29 585.89 16.85 585.92 13.35C585.88 11.6 586.08 9.79 585.75 8.22C585.41 6.61 584.62 5.09 583.45 3.89C582.28 2.71 580.75 1.87 579.09 1.57C577.49 1.31 575.5 1.49 573.66 1.45C569.91 1.48 566.1 1.5 562.24 1.53C554.51 1.58 546.55 1.63 538.39 1.68C505.75 1.86 469.89 2.06 432.23 2.27C427.9 2.21 424.12 6 423.86 10.25C423.8 14.88 423.74 19.48 423.69 24.04C423.6 33.21 423.51 42.24 423.42 51.12C423.23 68.88 423.05 86.01 422.88 102.33C422.85 104.37 422.83 106.39 422.81 108.41C422.71 110.34 423.17 112.14 424.13 113.7C425.09 115.23 426.53 116.46 428.21 117.08C429.84 117.78 431.71 117.58 433.69 117.6C441.42 117.58 448.92 117.56 456.18 117.54C470.68 117.51 484.2 117.48 496.55 117.46C521.16 117.46 541.1 117.46 555 117.46C561.83 117.5 567.16 117.53 570.89 117.55C572.64 117.58 574.01 117.61 575.03 117.62C575.96 117.65 576.44 117.68 576.44 117.71C576.44 117.74 575.96 117.77 575.03 117.81C574.01 117.84 572.64 117.87 570.9 117.92C567.17 117.98 561.83 118.06 555.01 118.17C541.11 118.3 521.16 118.49 496.55 118.73C484.2 118.83 470.69 118.93 456.18 119.04C448.93 119.09 441.42 119.14 433.69 119.19C431.85 119.17 429.68 119.42 427.64 118.58C425.62 117.85 423.9 116.38 422.74 114.56C421.59 112.75 421.05 110.48 421.16 108.39C421.18 106.38 421.19 104.35 421.21 102.31C421.35 85.99 421.49 68.86 421.64 51.11C421.72 42.23 421.81 33.19 421.89 24.02C421.94 19.41 422 14.77 422.06 10.1C422.37 5 426.91 0.4 432.23 0.46C469.88 0.3 505.75 0.15 538.39 0.02C546.54 -0.01 554.5 -0.03 562.23 -0.06C566.09 -0.07 569.9 -0.08 573.65 -0.09C575.55 -0.04 577.31 -0.25 579.36 0.07C581.34 0.43 583.15 1.44 584.52 2.84C585.89 4.26 586.81 6.04 587.19 7.93C587.56 9.87 587.33 11.63 587.37 13.37C587.33 16.87 587.28 20.3 587.24 23.67C587.16 30.4 587.08 36.87 587 43.04C586.65 67.64 586.36 87.59 586.16 101.49C586.13 103.21 586.1 104.84 586.07 106.37C586.05 107.88 586.05 109.38 585.65 110.7C584.9 113.35 583.24 115.15 581.74 116.19C580.19 117.21 578.78 117.56 577.85 117.67C577.23 117.75 576.76 117.77 576.44 117.71Z" />
							</g>
						</g>
					</g>
				</g>
			</g>
			<g id="&lt;Group&gt;">
				<g id="&lt;Group&gt;">
					<g id="&lt;Group&gt;">
						<g id="&lt;Group&gt;">
							<path id="&lt;Path&gt;" class="shp1" d="M510.43 49.56L530.17 61.41L510.12 73.3L490.08 85.19L490.39 61.45L490.7 37.71L510.43 49.56Z" />
						</g>
					</g>
				</g>
			</g>
		</g>
	</g>
</svg>